<svg width="120" height="120" viewBox="0 0 120 120" fill="none" xmlns="http://www.w3.org/2000/svg">
<circle cx="60" cy="60" r="60" fill="#F4F4F4"/>
<path fill-rule="evenodd" clip-rule="evenodd" d="M58.1931 28.1586C57.9224 28.2608 57.5231 28.479 57.3061 28.6436C57.0889 28.8083 50.8797 34.6406 43.5079 41.6041C36.1361 48.5677 29.9213 54.5218 29.6973 54.8352C29.4733 55.1488 29.2241 55.6398 29.1438 55.9264C29.0634 56.213 28.9986 56.7908 29 57.2101C29.0018 57.7657 29.095 58.1777 29.3429 58.7271C29.5301 59.142 29.9198 59.7115 30.2087 59.9927C30.4977 60.2739 31.0051 60.6228 31.3362 60.768C31.6673 60.9132 32.3321 61.0648 32.8135 61.1049L33.6888 61.1779L33.7222 75.2746L33.7559 89.3711L34.0399 89.8996C34.1962 90.1903 34.4898 90.616 34.6922 90.8453C34.8948 91.0746 35.3619 91.4283 35.7302 91.6312L36.3999 92H59.5036H82.6073L83.2821 91.6285C83.6531 91.424 84.1484 91.0342 84.3827 90.762C84.617 90.4899 84.9225 89.965 85.0615 89.5955C85.309 88.9375 85.3143 88.6355 85.3143 75.051V61.1782L86.1916 61.1051C86.6742 61.0649 87.3399 60.9132 87.671 60.768C88.0021 60.6228 88.5095 60.2739 88.7985 59.9927C89.0875 59.7115 89.4741 59.1484 89.6578 58.7414C89.8979 58.2096 89.9941 57.783 89.9998 57.2245C90.0042 56.7971 89.9435 56.2168 89.8648 55.9349C89.7862 55.653 89.5651 55.1903 89.3735 54.9066C89.1819 54.6229 87.9777 53.405 86.6976 52.1999L84.37 50.0089L84.3071 42.0241L84.2441 34.0394L83.9472 33.3867C83.784 33.0278 83.3858 32.488 83.0624 32.1872C82.7389 31.8864 82.1926 31.5322 81.8484 31.4001C81.2939 31.1876 80.8774 31.1602 78.2006 31.1602C75.2576 31.1602 75.1628 31.1681 74.5591 31.4635C74.2181 31.6304 73.7167 31.988 73.4447 32.2585C73.1727 32.5289 72.8287 33.0121 72.6804 33.3322C72.4451 33.8401 72.4027 34.2107 72.3469 36.2434L72.2831 38.5725L67.0169 33.5898C63.4359 30.2014 61.5626 28.5154 61.1623 28.3207C60.7381 28.1144 60.3102 28.0259 59.6295 28.0038C59.0298 27.9843 58.5056 28.0408 58.1931 28.1586ZM60.1499 30.3184C60.4066 30.4396 66.1779 35.8006 73.307 42.5405C80.2919 49.1438 86.3853 54.9245 86.8477 55.3863C87.4751 56.0127 87.7112 56.3447 87.7769 56.6931C87.8259 56.9528 87.8031 57.3656 87.7257 57.6227C87.649 57.8771 87.4113 58.2519 87.1976 58.4557C86.8224 58.8131 86.7576 58.8283 85.3376 58.889C84.5055 58.9247 83.7458 59.0204 83.5886 59.1096C83.4358 59.1962 83.252 59.4777 83.1801 59.7351C83.0933 60.0459 83.0491 65.0223 83.0488 74.5584L83.048 88.9138L82.7252 89.2953C82.5475 89.5051 82.1935 89.7344 81.9383 89.8049C81.6299 89.89 74.1033 89.9331 59.5036 89.9331C44.9039 89.9331 37.3773 89.89 37.069 89.8049C36.8137 89.7344 36.4597 89.5051 36.282 89.2953L35.9592 88.9138L35.9585 74.5584C35.9581 65.0223 35.9139 60.0459 35.8271 59.7351C35.7552 59.4777 35.5714 59.1962 35.4186 59.1096C35.2614 59.0204 34.5017 58.9247 33.6696 58.889C32.2497 58.8283 32.1848 58.8131 31.8096 58.4557C31.5959 58.2519 31.3582 57.8771 31.2816 57.6227C31.2044 57.3665 31.1813 56.9526 31.2299 56.695C31.2943 56.3542 31.5262 56.0215 32.0962 55.452C32.5243 55.0243 38.5881 49.2709 45.5714 42.6668C52.5547 36.0628 58.4985 30.5327 58.7799 30.3778C59.0612 30.2228 59.3816 30.0976 59.4919 30.0993C59.6022 30.1012 59.8983 30.1997 60.1499 30.3184ZM81.2954 33.5645C81.4953 33.6819 81.7454 33.959 81.851 34.1804C82.0168 34.5279 82.0385 35.478 82.0104 41.1552L81.9778 47.7276L78.2993 44.2635L74.621 40.7994L74.6166 37.6322C74.6131 35.044 74.6471 34.3982 74.8028 34.099C74.9074 33.8976 75.1483 33.6491 75.3379 33.5468C75.6104 33.3998 76.2316 33.3599 78.3071 33.3559C80.561 33.3516 80.983 33.3811 81.2954 33.5645ZM56.7887 50.5712C56.2304 50.6645 55.3023 50.8889 54.7264 51.0698C54.1503 51.2507 53.2491 51.5936 52.7235 51.8317C52.1979 52.0698 51.1996 52.639 50.5051 53.0964C49.7649 53.584 48.7708 54.3992 48.103 55.0662C47.466 55.7027 46.5942 56.7562 46.1255 57.4564C45.6644 58.1449 45.0912 59.1358 44.8517 59.6584C44.6122 60.181 44.2694 61.071 44.0897 61.6362C43.9102 62.2014 43.679 63.1804 43.576 63.8119C43.4729 64.4434 43.3887 65.6079 43.3887 66.3997C43.3887 67.1915 43.4759 68.3745 43.5826 69.0286C43.6891 69.6827 43.9751 70.8093 44.2181 71.5323C44.4611 72.2552 44.8887 73.2692 45.1685 73.7856C45.4481 74.302 45.9398 75.1188 46.261 75.6008C46.5821 76.0827 47.4126 77.044 48.1066 77.7369C48.82 78.4494 49.8332 79.3 50.4384 79.6948C51.027 80.0788 51.8672 80.5711 52.3054 80.7889C52.7436 81.0068 53.6785 81.3768 54.3829 81.611C55.0872 81.8454 56.2017 82.1302 56.8596 82.244C57.7729 82.402 58.532 82.4361 60.0702 82.3883C61.6683 82.3387 62.3318 82.2612 63.2808 82.0135C63.9386 81.8416 64.9302 81.5267 65.4841 81.3136C66.0381 81.1004 66.9163 80.6759 67.4357 80.3701L68.38 79.8143L72.1572 83.5463C74.2346 85.5988 76.1326 87.3818 76.375 87.5085C76.6895 87.6727 77.0861 87.7386 77.76 87.7383C78.4838 87.738 78.8239 87.675 79.2164 87.4682C79.4982 87.3198 79.9302 86.9767 80.1765 86.7058C80.4227 86.4348 80.7233 85.9163 80.8444 85.5536C80.9944 85.1047 81.0416 84.6998 80.9921 84.2849C80.9522 83.9496 80.8222 83.464 80.7033 83.2059C80.5712 82.9191 79.027 81.2743 76.7365 78.9808L72.986 75.2252L73.3792 74.5993C73.5955 74.2551 73.9566 73.5723 74.1817 73.0822C74.4068 72.592 74.7313 71.747 74.9029 71.2044C75.0744 70.6617 75.3058 69.6868 75.4171 69.0378C75.5285 68.3888 75.6196 67.2016 75.6196 66.3997C75.6196 65.5978 75.5285 64.4106 75.4171 63.7616C75.3058 63.1126 75.0744 62.1377 74.9029 61.595C74.7313 61.0524 74.395 60.181 74.1555 59.6584C73.9161 59.1358 73.3419 58.1433 72.8798 57.4527C72.4019 56.7386 71.5493 55.7095 70.9022 55.0663C70.2553 54.423 69.2204 53.5753 68.5021 53.1001C67.8076 52.6406 66.8093 52.0698 66.2838 51.8317C65.7581 51.5936 64.863 51.2527 64.2946 51.0741C63.7261 50.8956 62.7414 50.6657 62.1063 50.5633C61.4711 50.4608 60.2433 50.3825 59.3777 50.3893C58.5121 50.3961 57.3471 50.4778 56.7887 50.5712ZM62.3375 52.8713C62.9614 53.0023 63.8403 53.2474 64.2908 53.416C64.7412 53.5845 65.4489 53.894 65.8635 54.1034C66.2781 54.313 67.0422 54.7798 67.5616 55.141C68.0809 55.502 68.9308 56.2283 69.4502 56.7551C69.9695 57.282 70.6674 58.1187 71.0011 58.6146C71.3347 59.1106 71.8268 59.981 72.0944 60.5489C72.3621 61.1168 72.7237 62.0711 72.8982 62.6694C73.0726 63.2678 73.2797 64.3529 73.3585 65.0807C73.4641 66.0546 73.4653 66.7381 73.3636 67.6683C73.2875 68.3636 73.1123 69.3725 72.9742 69.9103C72.836 70.4482 72.5332 71.3356 72.3012 71.8827C72.0693 72.4296 71.5522 73.3773 71.1524 73.9885C70.7373 74.6231 69.9324 75.5866 69.2768 76.2337C68.645 76.8573 67.7047 77.6413 67.1873 77.976C66.6698 78.3108 65.8427 78.7702 65.3492 78.9969C64.8556 79.2236 63.9609 79.5505 63.361 79.7234C62.761 79.8963 61.6477 80.1048 60.8869 80.1868C59.8164 80.3024 59.1909 80.3024 58.1203 80.1868C57.3596 80.1048 56.2462 79.8963 55.6462 79.7234C55.0463 79.5505 54.1357 79.2162 53.6228 78.9807C53.1099 78.7451 52.2827 78.2835 51.7846 77.955C51.2865 77.6267 50.4058 76.9068 49.8272 76.3557C49.2012 75.7591 48.4456 74.8608 47.9607 74.1367C47.5127 73.4676 46.9509 72.46 46.7125 71.8978C46.474 71.3356 46.1687 70.4574 46.0341 69.9463C45.8994 69.4352 45.7255 68.4281 45.6475 67.7084C45.5422 66.7353 45.5425 66.0608 45.6489 65.0785C45.7276 64.3519 45.9313 63.2675 46.1017 62.6687C46.272 62.0699 46.719 60.9604 47.095 60.203C47.4975 59.392 48.1186 58.4055 48.606 57.8028C49.0611 57.24 49.7871 56.4734 50.2192 56.0992C50.6514 55.7251 51.3449 55.192 51.7604 54.9147C52.1759 54.6373 52.8675 54.2355 53.2973 54.0215C53.7271 53.8077 54.5203 53.4854 55.06 53.3052C55.5996 53.1251 56.4095 52.9045 56.8596 52.8153C57.3097 52.726 58.4712 52.6485 59.4407 52.6431C60.7233 52.636 61.5122 52.6981 62.3375 52.8713ZM58.8378 54.8842C58.6607 55.0228 58.4794 55.3003 58.435 55.501C58.3848 55.7288 58.427 56.0054 58.5475 56.2371C58.6549 56.4435 58.9098 56.6668 59.1221 56.7404C59.39 56.8332 59.6172 56.8332 59.8851 56.7404C60.0974 56.6668 60.3523 56.4435 60.4597 56.2371C60.5802 56.0054 60.6224 55.7288 60.5722 55.501C60.5279 55.3003 60.3466 55.0228 60.1694 54.8842C59.9923 54.7456 59.6927 54.6323 59.5036 54.6323C59.3145 54.6323 59.015 54.7456 58.8378 54.8842ZM54.0654 55.9816C53.5426 56.2505 52.7756 56.7303 52.3606 57.0478C51.9456 57.3652 51.2233 58.036 50.7553 58.5385C50.2873 59.0408 49.6553 59.8744 49.3507 60.3908C49.0461 60.9072 48.6291 61.7616 48.424 62.2895C48.2189 62.8174 47.965 63.7401 47.8598 64.3402C47.7546 64.9402 47.6685 65.7379 47.6685 66.1128C47.6685 66.6994 47.7198 66.8456 48.0365 67.1604C48.2389 67.3617 48.525 67.5264 48.6723 67.5264C48.8195 67.5264 49.1003 67.444 49.2962 67.3432C49.4922 67.2424 49.6889 67.0657 49.7334 66.9503C49.7779 66.835 49.8704 66.2035 49.9388 65.5471C50.0107 64.8584 50.2164 63.912 50.4252 63.3098C50.6242 62.7355 50.9778 61.9516 51.2108 61.5677C51.4439 61.1837 51.8732 60.5907 52.1648 60.25C52.4565 59.9091 52.9793 59.3892 53.3264 59.0945C53.6737 58.8 54.3036 58.3655 54.7264 58.1291C55.149 57.8928 55.6603 57.5675 55.8625 57.4065C56.1371 57.1878 56.2301 57.0076 56.2301 56.6937C56.2301 56.435 56.1213 56.1527 55.9468 55.9584C55.7909 55.785 55.5177 55.6094 55.3395 55.568C55.1063 55.5138 54.7494 55.6295 54.0654 55.9816ZM75.2133 80.5819C78.4706 83.8279 78.7672 84.1589 78.7672 84.5485C78.7672 84.8126 78.6636 85.0832 78.4935 85.2633C78.3061 85.4615 78.0774 85.553 77.7686 85.553C77.3457 85.553 77.0956 85.332 73.7549 82.009L70.1923 78.4651L70.8599 77.7707C71.2272 77.3889 71.5573 77.0683 71.5935 77.0584C71.6297 77.0485 73.2587 78.6341 75.2133 80.5819Z" fill="#292929"/>
</svg>
