<svg width="60" height="60" viewBox="0 0 60 60" fill="none" xmlns="http://www.w3.org/2000/svg">
<ellipse cx="30.0719" cy="30" rx="29.8039" ry="30" fill="#83B32B"/>
<path fill-rule="evenodd" clip-rule="evenodd" d="M21.97 16.6489L14.2095 19.2928L14.193 21.0502L14.1765 22.8075H30.0719H45.9674L45.9509 21.0502L45.9344 19.2929L38.1429 16.644C31.7977 14.4867 30.2937 13.9959 30.0409 14C29.8041 14.0038 27.8894 14.6323 21.97 16.6489ZM17.0343 26.2458V27.8086H17.6551H18.276V32.5284V37.2481H17.6551H17.0343V38.811V40.3738H20.1385H23.2427V38.811V37.2481H22.6219H22.001V32.5284V27.8086H22.6219H23.2427V26.2458V24.6829H20.1385H17.0343V26.2458ZM26.9677 26.2458V27.8086H27.5886H28.2094V32.5284V37.2481H27.5886H26.9677V38.811V40.3738H30.0719H33.1761V38.811V37.2481H32.5553H31.9345V32.5284V27.8086H32.5553H33.1761V26.2458V24.6829H30.0719H26.9677V26.2458ZM36.9012 26.2458V27.8086H37.522H38.1429V32.5284V37.2481H37.522H36.9012V38.811V40.3738H40.0054H43.1096V38.811V37.2481H42.4887H41.8679V32.5284V27.8086H42.4887H43.1096V26.2458V24.6829H40.0054H36.9012V26.2458ZM14.1784 44.1246V46H30.0719H45.9654V44.1246V42.2492H30.0719H14.1784V44.1246Z" fill="white"/>
</svg>
