<svg width="61" height="60" viewBox="0 0 61 60" fill="none" xmlns="http://www.w3.org/2000/svg">
<ellipse cx="30.4705" cy="30" rx="29.8039" ry="30" fill="#83B32B"/>
<path fill-rule="evenodd" clip-rule="evenodd" d="M25.2743 18.9494V20.8987H26.2581H27.2418V19.9367V18.9747H30.4706H33.6993V19.9367V20.8987H34.6831H35.6669V18.9494V17H30.4706H25.2743V18.9494ZM17.5555 25.7545V28.6863L17.6943 28.7355C17.7706 28.7626 20.6618 29.7787 24.1192 30.9936C27.5766 32.2085 30.4347 33.2025 30.4706 33.2025C30.5064 33.2025 33.3646 32.2085 36.8219 30.9936C40.2793 29.7787 43.1706 28.7626 43.2469 28.7355L43.3856 28.6863V25.7545V22.8228H30.4706H17.5555V25.7545ZM17.5555 35.8627V41H30.4706H43.3856V35.8627V30.7254L42.8181 30.9223C42.5059 31.0306 39.6196 32.0436 36.404 33.1735C33.1885 34.3034 30.5184 35.2278 30.4706 35.2278C30.4227 35.2278 27.7527 34.3034 24.5371 33.1735C21.3216 32.0436 18.4353 31.0306 18.1231 30.9223L17.5555 30.7254V35.8627Z" fill="white"/>
</svg>
