<svg width="120" height="120" viewBox="0 0 120 120" fill="none" xmlns="http://www.w3.org/2000/svg">
<circle cx="60" cy="60" r="60" fill="#292929"/>
<path fill-rule="evenodd" clip-rule="evenodd" d="M73.4375 30.9186C70.825 31.9664 63.3438 34.9502 56.8125 37.5493C50.2812 40.1484 41.3656 43.6947 37 45.4301C30.0081 48.2093 28.9992 48.6438 28.5312 49.0774L28 49.5698V66.4136V83.2573L28.3654 83.6227L28.7308 83.9881H55.5985H82.4663L82.7914 83.7324C82.9701 83.5917 83.1742 83.2683 83.245 83.0137C83.3275 82.7164 83.3739 79.3899 83.3742 73.7307L83.375 64.9107L87.4024 63.3013C90.0923 62.2263 91.5245 61.5897 91.7149 61.3842C91.8916 61.1936 92 60.9202 92 60.6653C92 60.4156 89.6128 54.2473 85.9235 44.9648C81.0504 32.7032 79.7752 29.6074 79.4841 29.3318C79.2129 29.0749 79.003 28.9913 78.6543 29.0007C78.3665 29.0084 76.3659 29.7439 73.4375 30.9186ZM78.285 32.7693C78.4562 33.1991 80.9436 39.4476 83.8125 46.6551C86.7029 53.9169 88.9803 59.8062 88.9205 59.8639C88.8611 59.9214 87.6594 60.4291 86.25 60.9922C84.8406 61.5552 83.6196 62.0429 83.5368 62.0758C83.4206 62.1218 83.3775 60.7011 83.3493 55.8824L83.3125 49.6293L82.9454 49.2462C82.7435 49.0354 82.4831 48.8631 82.3669 48.8631C82.2508 48.8631 82.1001 48.7928 82.0324 48.7068C81.9646 48.6209 81.3005 47.0037 80.5566 45.1131C79.62 42.7328 79.0988 41.5698 78.8616 41.3318C78.5401 41.0091 78.4525 40.9881 77.4239 40.9881C76.8214 40.9881 75.9592 40.8963 75.508 40.7843C75.0568 40.6722 74.35 40.4116 73.9375 40.2051C73.525 39.9987 73.0469 39.7214 72.875 39.5892C72.7031 39.4569 72.1878 38.9863 71.7296 38.5433C71.0107 37.8483 70.8334 37.7381 70.4345 37.7381C70.1405 37.7381 68.7158 38.2352 66.5175 39.1049C64.6173 39.8567 58.675 42.2191 53.3125 44.3546C47.2639 46.7634 43.4831 48.3332 43.3534 48.4897C43.1513 48.7336 43.0238 48.7408 39.4876 48.7087L35.8309 48.6756L56.7593 40.3377C68.2698 35.7519 77.7519 31.9972 77.8305 31.9939C77.9091 31.9907 78.1136 32.3397 78.285 32.7693ZM71.0395 41.4101C71.4394 41.7309 72.2195 42.2213 72.7733 42.4998C73.327 42.7782 74.1811 43.1074 74.6712 43.2314C75.1615 43.3554 75.9318 43.4954 76.383 43.5424L77.2035 43.6279L78.2109 46.1831L79.2183 48.7381L64.2654 48.7282C56.0412 48.7228 49.3969 48.6859 49.5 48.6463C49.6031 48.6067 54.243 46.7582 59.8107 44.5386C68.3255 41.1442 69.9641 40.5286 70.1232 40.6647C70.2274 40.7537 70.6396 41.0891 71.0395 41.4101ZM80.75 66.4256V81.4881H55.625H30.5V66.4256V51.3631H55.625H80.75V66.4256ZM39.3846 54.1867C39.1731 54.3647 39 54.5786 39 54.6621C39 54.7454 38.7825 55.2636 38.5166 55.8133C38.2191 56.4287 37.7505 57.1191 37.2979 57.6094C36.8934 58.0476 36.2297 58.6217 35.8231 58.8853C35.4165 59.1489 34.7536 59.4851 34.3501 59.6322C33.9181 59.7897 33.4883 60.0521 33.3046 60.2702L32.9929 60.6407L33.0278 66.4991L33.0625 72.3576L33.375 72.6515C33.5469 72.8132 34.0813 73.096 34.5625 73.2798C35.0437 73.4638 35.8251 73.9057 36.2989 74.2618C36.7773 74.6215 37.4297 75.2743 37.7662 75.7299C38.0996 76.1813 38.5219 76.9443 38.7046 77.4256C38.8875 77.9068 39.1984 78.4553 39.3955 78.6443L39.754 78.9881H55.6314C69.8787 78.9881 71.5396 78.9678 71.8096 78.791C71.9927 78.671 72.239 78.2575 72.4389 77.7345C72.6195 77.2618 72.9823 76.549 73.2451 76.1503C73.5079 75.7517 73.8646 75.2788 74.0378 75.0994C74.2109 74.9201 74.5966 74.5749 74.895 74.3327C75.1934 74.0905 75.7875 73.7169 76.2151 73.5026C76.6429 73.2883 77.0845 73.1131 77.1964 73.1131C77.3084 73.1131 77.5913 72.9218 77.825 72.6881L78.25 72.2631V66.4943C78.25 61.6758 78.2199 60.6674 78.0671 60.372C77.9334 60.1133 77.6564 59.9278 77.0359 59.6813C76.5692 59.4959 75.9344 59.1974 75.625 59.0181C75.3156 58.8386 74.7585 58.4069 74.387 58.0587C74.0154 57.7104 73.499 57.0994 73.2394 56.7008C72.9796 56.3022 72.6195 55.5893 72.4389 55.1167C72.239 54.5937 71.9927 54.1802 71.8096 54.0602C71.5396 53.8833 69.8794 53.8631 55.639 53.8631H39.7691L39.3846 54.1867ZM70.25 56.5219C70.25 56.6093 70.5051 57.1166 70.8169 57.6493C71.1287 58.1819 71.7574 59.0137 72.2139 59.4977C72.6705 59.9817 73.4656 60.6544 73.981 60.9927C74.4964 61.3311 75.1053 61.6697 75.334 61.7452L75.75 61.8825V66.3707V70.8588L75.0938 71.1903C74.7329 71.3726 74.1844 71.6906 73.875 71.8971C73.5656 72.1036 72.9559 72.6163 72.5201 73.0366C72.0843 73.4567 71.5155 74.11 71.2561 74.4881C70.9967 74.8662 70.6353 75.4708 70.4528 75.8318L70.1208 76.4881H55.6292H41.1376L40.6335 75.5193C40.3561 74.9866 39.8555 74.2187 39.5209 73.8131C39.1864 73.4075 38.5806 72.8013 38.175 72.4663C37.7694 72.1312 37.0299 71.6476 36.5317 71.3913L35.6261 70.9256L35.6255 66.4192L35.625 61.9129L36.2188 61.6255C36.5452 61.4673 37.1554 61.0938 37.5744 60.7955C37.9935 60.4972 38.7248 59.8361 39.1994 59.3264C39.7143 58.7738 40.2804 57.9891 40.6025 57.3816L41.1425 56.3631H55.6963C67.3836 56.3631 70.25 56.3943 70.25 56.5219ZM53.8969 59.0378C53.5308 59.1306 52.7714 59.4344 52.2094 59.7131C51.5494 60.0402 50.9271 60.4739 50.4521 60.9379C50.0476 61.3329 49.5039 61.9856 49.2436 62.3881C48.9835 62.7906 48.6472 63.47 48.4964 63.8977C48.3034 64.4448 48.2037 65.0835 48.1605 66.0506C48.1138 67.0939 48.1494 67.6189 48.3081 68.2272C48.4233 68.6682 48.7174 69.4276 48.9618 69.9147C49.2755 70.5401 49.6906 71.0817 50.3735 71.7563C51.0863 72.4607 51.59 72.8321 52.288 73.1678C52.809 73.4184 53.6465 73.7111 54.1489 73.8181C54.7617 73.9487 55.3918 73.9905 56.0625 73.945C56.6125 73.9076 57.429 73.7632 57.8769 73.6241C58.3249 73.485 59.0493 73.1547 59.4866 72.8902C59.9241 72.6258 60.5982 72.0946 60.9847 71.7098C61.3713 71.3251 61.871 70.7062 62.0952 70.3344C62.3195 69.9627 62.6124 69.3472 62.7461 68.9666C62.8799 68.5859 63.0516 67.8867 63.1278 67.4126C63.2038 66.9384 63.2306 66.2131 63.1872 65.8006C63.1439 65.3881 63.0226 64.7412 62.918 64.3631C62.8132 63.985 62.5355 63.3087 62.3008 62.8603C62.0661 62.4121 61.6232 61.7586 61.3169 61.4082C61.0104 61.0579 60.3765 60.5094 59.9083 60.1896C59.44 59.8696 58.6363 59.4596 58.1221 59.2786C57.3921 59.0213 56.9001 58.9404 55.875 58.9092C55.0543 58.8842 54.3131 58.9324 53.8969 59.0378ZM57.3469 61.7448C57.7095 61.8694 58.2791 62.1717 58.6129 62.4167C58.9465 62.6616 59.3705 63.06 59.555 63.3018C59.7395 63.5438 60.0406 64.0643 60.2243 64.4587C60.5128 65.0785 60.5578 65.3364 60.5563 66.3631C60.5549 67.3072 60.4955 67.6988 60.2666 68.2737C60.0894 68.7188 59.7144 69.2825 59.2905 69.7402C58.8289 70.2387 58.3289 70.6182 57.7725 70.8921C56.9949 71.2749 56.8602 71.3006 55.6276 71.3006C54.4624 71.3006 54.231 71.2625 53.5977 70.9656C53.2046 70.7813 52.6074 70.3728 52.2705 70.0577C51.9338 69.7426 51.4876 69.1621 51.2792 68.7677C51.0707 68.3733 50.8328 67.7197 50.7504 67.3152C50.661 66.8769 50.6357 66.297 50.6877 65.8798C50.7359 65.4949 50.8875 64.8799 51.0247 64.5132C51.1851 64.0846 51.5368 63.5656 52.0093 63.0606C52.5304 62.5034 52.9694 62.1738 53.5175 61.9278C53.9427 61.7369 54.5767 61.5432 54.9266 61.4971C55.2764 61.4511 55.8156 61.437 56.125 61.4658C56.4344 61.4947 56.9842 61.6202 57.3469 61.7448ZM41.0562 64.6571C40.8466 64.7522 40.5255 65.0078 40.3425 65.2252C40.1596 65.4426 39.9729 65.8181 39.9275 66.0597C39.8733 66.3491 39.9175 66.6883 40.0574 67.0546C40.1741 67.3603 40.4135 67.7236 40.5892 67.8618C40.765 68.0001 41.1244 68.1777 41.3877 68.2567C41.7854 68.3758 41.9635 68.3632 42.4355 68.1829C42.7803 68.0513 43.1389 67.7893 43.3459 67.518C43.6179 67.1613 43.6875 66.9362 43.6875 66.4132C43.6875 65.9448 43.6136 65.6575 43.4298 65.4112C43.288 65.2213 43.0273 64.958 42.8503 64.8258C42.6734 64.6937 42.2831 64.5628 41.983 64.535C41.6754 64.5063 41.2712 64.5596 41.0562 64.6571ZM68.6275 64.7C68.3882 64.8241 68.0661 65.1147 67.9118 65.3458C67.7574 65.577 67.5954 65.9562 67.5519 66.1886C67.4935 66.4992 67.5506 66.7686 67.7675 67.2058C67.9894 67.6531 68.202 67.8721 68.625 68.089C69.0535 68.3086 69.3056 68.3593 69.6833 68.3018C69.956 68.2605 70.3698 68.0811 70.6029 67.9033C70.8359 67.7256 71.1049 67.3924 71.2007 67.1631C71.2966 66.9337 71.375 66.5557 71.375 66.3231C71.375 66.0902 71.2486 65.7143 71.0938 65.4868C70.939 65.2596 70.6643 64.9638 70.483 64.8296C70.3019 64.6953 69.9081 64.5606 69.608 64.5299C69.2359 64.4921 68.9242 64.5462 68.6275 64.7ZM42.225 66.0131C42.3075 66.0956 42.375 66.2812 42.375 66.4256C42.375 66.57 42.3075 66.7556 42.225 66.8381C42.1425 66.9206 41.9569 66.9881 41.8125 66.9881C41.6681 66.9881 41.4825 66.9206 41.4 66.8381C41.3175 66.7556 41.25 66.57 41.25 66.4256C41.25 66.2812 41.3175 66.0956 41.4 66.0131C41.4825 65.9306 41.6681 65.8631 41.8125 65.8631C41.9569 65.8631 42.1425 65.9306 42.225 66.0131ZM69.85 66.0131C69.9325 66.0956 70 66.2812 70 66.4256C70 66.57 69.9325 66.7556 69.85 66.8381C69.7675 66.9206 69.5819 66.9881 69.4375 66.9881C69.2931 66.9881 69.1075 66.9206 69.025 66.8381C68.9425 66.7556 68.875 66.57 68.875 66.4256C68.875 66.2812 68.9425 66.0956 69.025 66.0131C69.1075 65.9306 69.2931 65.8631 69.4375 65.8631C69.5819 65.8631 69.7675 65.9306 69.85 66.0131Z" fill="white"/>
</svg>
