<svg width="120" height="120" viewBox="0 0 120 120" fill="none" xmlns="http://www.w3.org/2000/svg">
<circle cx="60" cy="60" r="60" fill="#292929"/>
<path fill-rule="evenodd" clip-rule="evenodd" d="M58.7514 25.2539C58.3308 25.4427 57.0174 26.6764 53.5456 30.144L48.9022 34.7815L48.8537 32.7326C48.8125 30.9995 48.7654 30.597 48.5482 30.12C48.4069 29.8098 48.0999 29.3647 47.8661 29.1309C47.6323 28.8971 47.1872 28.5884 46.8771 28.4447C46.3694 28.2097 46.0823 28.1837 44.0005 28.1837C41.9187 28.1837 41.6316 28.2097 41.1239 28.4447C40.8138 28.5884 40.3686 28.8971 40.1349 29.1309C39.9011 29.3647 39.5923 29.8098 39.4487 30.12C39.1954 30.6672 39.1867 30.889 39.1521 37.6218L39.1163 44.5597L33.7039 49.9976C29.0952 54.628 28.2698 55.5118 28.1455 55.9499C28.0653 56.233 28.0008 56.7392 28.0023 57.075C28.0038 57.4158 28.1174 57.9342 28.2594 58.2481C28.3993 58.5575 28.6933 58.9984 28.9129 59.2279C29.1324 59.4573 29.5371 59.7661 29.8121 59.9139C30.2529 60.151 30.5529 60.188 32.3435 60.2263L34.3749 60.2697V73.0098V85.7498H31.8624C29.814 85.7498 29.2717 85.7869 28.9267 85.9506C28.6939 86.0611 28.39 86.335 28.2515 86.5591C28.1129 86.7834 27.9998 87.1571 28 87.3897C28.0003 87.6222 28.1103 87.9926 28.2445 88.2126C28.3786 88.4327 28.6569 88.7 28.8628 88.8064C29.1978 88.9796 32.4713 89 60.0015 89C87.5317 89 90.8052 88.9796 91.1402 88.8064C91.3461 88.7 91.6243 88.4327 91.7585 88.2126C91.8927 87.9926 92.0027 87.6222 92.003 87.3897C92.0032 87.1571 91.8901 86.7834 91.7515 86.5591C91.613 86.335 91.3091 86.0611 91.0763 85.9506C90.7313 85.7869 90.189 85.7498 88.1406 85.7498H85.6281V73.0098V60.2697L87.6595 60.2263C89.4501 60.188 89.7501 60.151 90.1909 59.9139C90.4659 59.7661 90.8705 59.4573 91.0901 59.2279C91.3097 58.9984 91.6037 58.5575 91.7436 58.2481C91.8856 57.9342 91.9992 57.4158 92.0007 57.075C92.0022 56.7392 91.9384 56.233 91.8589 55.9499C91.7327 55.5014 89.8059 53.5229 76.8267 40.5152C64.7809 28.443 61.8199 25.538 61.3141 25.2967C60.8876 25.0931 60.4706 24.9989 60.0015 25C59.5838 25.0009 59.0932 25.1005 58.7514 25.2539ZM74.4399 42.6221L88.8154 56.998H85.5966H82.3779V71.3739V85.7498H60.0015H37.6251V71.3739V56.998H34.4064H31.1876L45.5631 42.6221C53.4696 34.7154 59.9669 28.2462 60.0015 28.2462C60.0361 28.2462 66.5334 34.7154 74.4399 42.6221ZM45.5965 34.7334L45.6298 38.0327L44.1028 39.5774C43.263 40.427 42.5307 41.122 42.4755 41.122C42.4205 41.122 42.3754 38.9656 42.3754 36.3301C42.3754 33.6944 42.4145 31.4989 42.4624 31.451C42.5103 31.4033 43.2274 31.3798 44.0563 31.399L45.5631 31.4339L45.5965 34.7334ZM50.9429 52.2576C50.5328 52.3196 49.8015 52.5594 49.3178 52.7901C48.834 53.021 48.1328 53.4855 47.7595 53.8226C47.3861 54.1596 46.8649 54.7689 46.6013 55.1764C46.3376 55.5839 46.0102 56.279 45.8737 56.7209C45.7067 57.2619 45.6256 57.8802 45.6256 58.6136C45.6256 59.2126 45.7082 59.9811 45.8092 60.3212C45.9102 60.6612 46.1726 61.2714 46.3923 61.6769C46.6119 62.0824 47.1183 62.741 47.5176 63.1403C47.9169 63.5395 48.5685 64.0302 48.9659 64.2307C49.3632 64.4313 49.9939 64.6861 50.3674 64.797C50.7408 64.9077 51.476 64.9985 52.001 64.9985C52.526 64.9985 53.2612 64.9077 53.6346 64.797C54.0081 64.6861 54.6388 64.4313 55.0361 64.2307C55.4335 64.0302 56.0851 63.5395 56.4844 63.1403C56.8837 62.741 57.3901 62.0824 57.6097 61.6769C57.8294 61.2714 58.0918 60.6612 58.1928 60.3212C58.2938 59.9811 58.3764 59.2126 58.3764 58.6136C58.3764 57.8802 58.2953 57.2619 58.1283 56.7209C57.9917 56.279 57.6644 55.5839 57.4007 55.1764C57.1371 54.7689 56.6182 54.163 56.2475 53.8301C55.8769 53.4972 55.2606 53.0668 54.8781 52.8736C54.4954 52.6805 53.9587 52.4651 53.6855 52.395C53.4122 52.325 52.851 52.24 52.4385 52.2062C52.026 52.1723 51.353 52.1955 50.9429 52.2576ZM58.8757 65.4368L46.0643 78.2487L47.2203 79.4048L48.3764 80.5608L61.1268 67.8109C68.1396 60.7984 73.8774 55.0033 73.8774 54.933C73.8774 54.8627 73.3846 54.3146 72.7822 53.7151L71.687 52.625L58.8757 65.4368ZM53.3185 55.7327C53.5961 55.8588 54.0595 56.2305 54.3483 56.5585C54.637 56.8865 54.9298 57.3587 54.9991 57.6077C55.0682 57.8568 55.1238 58.3418 55.1227 58.6856C55.1216 59.0429 55.0116 59.5517 54.8661 59.8732C54.726 60.1826 54.46 60.5956 54.275 60.791C54.09 60.9863 53.7136 61.2663 53.4386 61.413C53.0557 61.6174 52.7189 61.68 52.001 61.68C51.2831 61.68 50.9463 61.6174 50.5634 61.413C50.2884 61.2663 49.912 60.9863 49.727 60.791C49.542 60.5956 49.276 60.1826 49.1359 59.8732C48.9904 59.5517 48.8804 59.0429 48.8793 58.6856C48.8782 58.3418 48.9338 57.8568 49.0029 57.6077C49.0722 57.3587 49.365 56.8865 49.6537 56.5585C49.9425 56.2305 50.4059 55.8588 50.6835 55.7327C51.0074 55.5855 51.4797 55.5034 52.001 55.5034C52.5223 55.5034 52.9946 55.5855 53.3185 55.7327ZM66.9439 68.2586C66.5338 68.3206 65.8025 68.5603 65.3188 68.7911C64.835 69.022 64.1338 69.4865 63.7605 69.8236C63.3871 70.1606 62.8659 70.7699 62.6023 71.1774C62.3386 71.5849 62.0112 72.28 61.8747 72.7219C61.7077 73.2629 61.6266 73.8812 61.6266 74.6146C61.6266 75.2136 61.7092 75.9821 61.8102 76.3222C61.9112 76.6622 62.1736 77.2724 62.3933 77.6779C62.6129 78.0834 63.1193 78.742 63.5186 79.1413C63.9179 79.5405 64.5695 80.0312 64.9669 80.2317C65.3642 80.4323 65.9949 80.6871 66.3684 80.798C66.7418 80.9087 67.477 80.9995 68.002 80.9995C68.527 80.9995 69.2622 80.9087 69.6356 80.798C70.0091 80.6871 70.6398 80.4323 71.0371 80.2317C71.4345 80.0312 72.0861 79.5405 72.4854 79.1413C72.8847 78.742 73.3911 78.0834 73.6107 77.6779C73.8304 77.2724 74.0928 76.6622 74.1938 76.3222C74.2948 75.9821 74.3774 75.2136 74.3774 74.6146C74.3774 73.8812 74.2963 73.2629 74.1293 72.7219C73.9927 72.28 73.6653 71.5849 73.4017 71.1774C73.1381 70.7699 72.6192 70.1639 72.2485 69.8311C71.8779 69.4982 71.2616 69.0678 70.8791 68.8746C70.4964 68.6815 69.9597 68.4661 69.6865 68.396C69.4132 68.326 68.852 68.241 68.4395 68.2072C68.027 68.1733 67.354 68.1965 66.9439 68.2586ZM69.3195 71.7337C69.5971 71.8598 70.0605 72.2315 70.3493 72.5595C70.638 72.8875 70.9308 73.3596 71.0001 73.6087C71.0692 73.8578 71.1248 74.3428 71.1237 74.6866C71.1226 75.0439 71.0126 75.5527 70.8671 75.8742C70.727 76.1836 70.461 76.5966 70.276 76.792C70.091 76.9873 69.7146 77.2673 69.4396 77.414C69.0567 77.6184 68.7199 77.681 68.002 77.681C67.2841 77.681 66.9473 77.6184 66.5644 77.414C66.2894 77.2673 65.913 76.9873 65.728 76.792C65.543 76.5966 65.2769 76.1836 65.1369 75.8742C64.9914 75.5527 64.8814 75.0439 64.8803 74.6866C64.8792 74.3428 64.9348 73.8578 65.0039 73.6087C65.0732 73.3596 65.366 72.8875 65.6547 72.5595C65.9435 72.2315 66.4069 71.8598 66.6845 71.7337C67.0084 71.5865 67.4807 71.5044 68.002 71.5044C68.5233 71.5044 68.9956 71.5865 69.3195 71.7337Z" fill="white"/>
</svg>
