<svg width="120" height="120" viewBox="0 0 120 120" fill="none" xmlns="http://www.w3.org/2000/svg">
<circle cx="60" cy="60" r="60" fill="#292929"/>
<path fill-rule="evenodd" clip-rule="evenodd" d="M66.9898 29.6394C60.2887 30.5285 54.6357 31.3462 54.4275 31.4566C54.2193 31.5672 53.9257 31.8318 53.7752 32.0448C53.6247 32.2579 53.5016 32.6954 53.5016 33.017C53.5016 33.3387 53.5896 33.7737 53.6971 33.9839C53.8045 34.194 54.9348 35.4088 56.2087 36.6834L58.5248 39.0008L51.1611 46.3085L43.7973 53.6161V54.3932C43.7973 55.1676 43.8079 55.1807 47.0226 58.3676C50.21 61.5274 50.257 61.565 51.0102 61.565C51.6419 61.565 51.8753 61.4631 52.3723 60.9703C52.802 60.5444 52.9722 60.2184 52.9722 59.8218C52.9722 59.5173 52.8842 59.0963 52.7766 58.886C52.6691 58.676 51.6585 57.5796 50.5308 56.4498L48.4806 54.3957L55.7424 47.1794C60.5442 42.408 63.0449 39.8002 63.1241 39.4822C63.1901 39.2177 63.191 38.7846 63.1263 38.5202C63.0578 38.2406 62.2568 37.2882 61.2136 36.2463C60.2264 35.2601 59.5357 34.4534 59.6786 34.4534C59.8217 34.4534 63.9328 33.9322 68.8144 33.2953C73.696 32.6583 77.729 32.1759 77.7769 32.2233C77.8247 32.2707 77.3336 36.3141 76.6857 41.2087C76.0379 46.1035 75.4782 50.1419 75.442 50.183C75.4057 50.2243 74.5443 49.4465 73.5276 48.4547L71.6791 46.6514L70.8584 46.7432C70.0403 46.8345 70.0029 46.8693 59.0358 57.7404L48.0338 68.6461L45.6949 66.3489C44.4087 65.0853 43.1828 63.9643 42.9708 63.8578C42.7588 63.7513 42.3854 63.664 42.141 63.664C41.8967 63.664 41.4954 63.7548 41.2497 63.8658C41.0039 63.9769 40.6798 64.254 40.5293 64.4815C40.3392 64.7689 39.7429 68.7512 38.5761 77.522C37.6522 84.4668 36.9445 90.3392 37.0034 90.572C37.0624 90.8048 37.3387 91.2215 37.6173 91.4976C37.9539 91.8314 38.3049 92 38.6625 92C38.9588 92 44.6617 91.2926 51.3357 90.4282C58.0098 89.5636 63.7639 88.7746 64.1226 88.6749C64.4813 88.575 64.9379 88.2878 65.1372 88.0366C65.3429 87.7776 65.4996 87.3204 65.4996 86.9798C65.4996 86.6497 65.4115 86.2079 65.3041 85.9977C65.1966 85.7876 64.0663 84.5728 62.7924 83.2982L60.4763 80.9808L67.8401 73.6731L75.2038 66.3655V65.5884C75.2038 64.814 75.1932 64.8009 71.9785 61.614C68.9365 58.5983 68.7154 58.4166 68.088 58.4166C67.7222 58.4166 67.2042 58.5287 66.9367 58.6658C66.6692 58.803 66.3557 59.1215 66.2397 59.3737C66.1238 59.6259 66.0289 60.1117 66.0289 60.4531C66.0289 61.0126 66.2493 61.2962 68.269 63.3355L70.5091 65.5973L63.2529 72.8078C58.4551 77.5756 55.9562 80.1814 55.877 80.4994C55.811 80.7641 55.8101 81.197 55.8749 81.4615C55.9433 81.741 56.7444 82.6934 57.7875 83.7353C58.7747 84.7213 59.5044 85.5263 59.4092 85.524C59.3139 85.5215 55.2032 86.0431 50.2745 86.683C45.3456 87.3228 41.2735 87.8071 41.2251 87.7592C41.1768 87.7115 41.6675 83.6675 42.3154 78.7729C42.9633 73.8781 43.5229 69.8397 43.5591 69.7986C43.5954 69.7573 44.4462 70.5248 45.45 71.504C46.9997 73.0157 47.3603 73.2842 47.8415 73.2842C48.1531 73.2842 48.5813 73.1973 48.7934 73.0911C49.0053 72.985 54.0812 68.0464 60.0731 62.1167L70.9673 51.3355L73.3062 53.6327C74.5925 54.8963 75.8184 56.0173 76.0303 56.1238C76.2424 56.2303 76.6157 56.3176 76.8601 56.3176C77.1044 56.3176 77.5057 56.2268 77.7515 56.1158C77.9972 56.0047 78.3217 55.7275 78.4722 55.4995C78.6628 55.2111 79.2567 51.2432 80.4245 42.4548C81.3475 35.5083 82.055 29.6361 81.9966 29.4056C81.9382 29.1749 81.6624 28.7601 81.3839 28.484C80.9569 28.0607 80.7432 27.9849 80.0254 28.0022C79.557 28.0138 73.691 28.7503 66.9898 29.6394Z" fill="white"/>
</svg>
