<svg width="60" height="60" viewBox="0 0 60 60" fill="none" xmlns="http://www.w3.org/2000/svg">
<ellipse cx="29.8039" cy="30" rx="29.8039" ry="30" fill="#83B32B"/>
<path fill-rule="evenodd" clip-rule="evenodd" d="M29.0433 18.0762C28.9514 18.1268 28.2635 19.2067 26.8701 21.4875C25.2199 24.1889 24.8018 24.8386 24.6762 24.8971C24.5908 24.9368 22.9027 25.37 20.9248 25.8597C18.947 26.3494 17.2636 26.7769 17.184 26.8098C17.1043 26.8426 17.0054 26.9357 16.9641 27.0167C16.9227 27.0976 16.8889 27.2306 16.8889 27.3121C16.8889 27.3936 16.9288 27.5186 16.9775 27.5898C17.0263 27.6611 18.1477 29.0153 19.4696 30.5992C20.7915 32.1831 21.8958 33.5401 21.9236 33.6148C21.9595 33.7109 21.8919 34.872 21.6917 37.6002C21.5003 40.2093 21.4239 41.5057 21.4548 41.623C21.4834 41.7318 21.5616 41.8338 21.6653 41.8979C21.7561 41.954 21.8844 41.9999 21.9504 42C22.0165 42.0001 23.6656 41.3399 25.6149 40.5328C27.5643 39.7258 29.2279 39.0654 29.3118 39.0654C29.3957 39.0654 31.0584 39.7258 33.0068 40.5328C34.9552 41.3399 36.6021 42.0001 36.6667 42C36.7312 41.9999 36.8583 41.954 36.949 41.8979C37.0528 41.8338 37.1309 41.7318 37.1596 41.623C37.1905 41.5057 37.1141 40.2093 36.9227 37.6002C36.7222 34.8681 36.6548 33.711 36.6908 33.6146C36.7187 33.5398 37.8376 32.1673 39.1773 30.5646C40.517 28.962 41.6384 27.6028 41.6693 27.5443C41.7002 27.4859 41.7255 27.3786 41.7255 27.306C41.7255 27.2335 41.6976 27.1122 41.6637 27.0366C41.6297 26.9611 41.5399 26.8668 41.4642 26.8271C41.3885 26.7874 39.6991 26.353 37.71 25.8616C35.7209 25.3702 34.0236 24.9357 33.9382 24.896C33.8125 24.8375 33.3951 24.1886 31.7457 21.4875C30.22 18.989 29.6717 18.1319 29.5621 18.0746C29.4817 18.0324 29.3622 17.9989 29.2968 18C29.2314 18.0012 29.1173 18.0355 29.0433 18.0762Z" fill="white"/>
</svg>
