<svg width="120" height="120" viewBox="0 0 120 120" fill="none" xmlns="http://www.w3.org/2000/svg">
<circle cx="60" cy="60" r="60" fill="#F4F4F4"/>
<path fill-rule="evenodd" clip-rule="evenodd" d="M76.1029 26.1115C75.918 26.1668 72.1208 28.1425 67.6647 30.5021L59.5624 34.7922H56.736C54.0658 34.7922 53.8913 34.8064 53.5801 35.0492L53.2507 35.306V38.5206V41.735H52.0771C51.1318 41.735 50.8492 41.7785 50.6247 41.9588C50.4714 42.0819 49.2924 43.8533 48.0047 45.8951L45.6634 49.6077L39.8005 49.6697L33.9377 49.7316L33.2352 50.0583C32.8488 50.2381 32.3088 50.5857 32.035 50.831C31.7614 51.0762 31.3462 51.6265 31.1125 52.054L30.6876 52.8311V58.2862V63.7413L31.1163 64.5256C31.3521 64.9569 31.774 65.5079 32.0539 65.7499C32.3336 65.9918 32.872 66.3348 33.2502 66.5121C33.8773 66.8062 34.1053 66.8387 35.8467 66.8819L37.7558 66.9294L37.7218 69.1786L37.6878 71.428L35.4377 71.4962C33.5064 71.5547 33.0876 71.6036 32.4819 71.8412C32.0937 71.9935 31.4454 72.3301 31.041 72.5893C30.6365 72.8486 30.0422 73.3593 29.7202 73.7245C29.3982 74.0895 28.9685 74.6984 28.7654 75.0777C28.5623 75.4569 28.3069 76.1101 28.198 76.529C28.0891 76.9481 28 77.7035 28 78.2077C28 78.712 28.0864 79.4537 28.192 79.8557C28.2976 80.2579 28.4864 80.8136 28.6115 81.0906C28.7368 81.3677 29.0954 81.929 29.4087 82.3382C29.7221 82.7473 30.2611 83.2947 30.6066 83.5545C30.952 83.8143 31.5215 84.1641 31.872 84.3319C32.2226 84.4996 32.8589 84.7186 33.286 84.8184C33.9483 84.9733 36.5768 85 51.1257 85C65.4454 85 68.3093 84.9717 68.9387 84.8237C69.3512 84.7266 69.9494 84.5325 70.268 84.3921C70.5865 84.2518 71.185 83.8903 71.598 83.5887C72.0245 83.2774 72.6066 82.6825 72.9453 82.2116C73.2733 81.7557 73.6798 81.0118 73.8485 80.5586C74.056 80.0015 74.175 79.3732 74.2161 78.6188C74.2587 77.8369 74.2162 77.2471 74.0741 76.6479C73.9626 76.1776 73.7016 75.4768 73.494 75.0905C73.2865 74.7043 72.8532 74.0895 72.5312 73.7245C72.2092 73.3593 71.6149 72.8486 71.2104 72.5893C70.806 72.3301 70.1576 71.9947 69.7695 71.8438C69.1683 71.6104 68.7301 71.5592 66.8136 71.4988L64.5636 71.428L64.5294 69.1654L64.4954 66.9028H67.7315C70.816 66.9028 70.983 66.8907 71.2969 66.6458L71.6263 66.3889V60.2173V54.0459L69.1137 48.1694C67.4628 44.3082 66.4959 42.1972 66.2941 42.0139C66.0265 41.7707 65.852 41.735 64.9316 41.735H63.8761V40.9523V40.1696L67.5949 38.2034C69.6404 37.122 71.5973 36.0807 71.9438 35.8895L72.5739 35.5417L79.1106 43.0446L85.6473 50.5476L84.5087 52.7431C83.8824 53.9508 82.9364 55.7896 82.4065 56.8295L81.4428 58.7201H78.989C76.6958 58.7201 76.5136 58.737 76.2058 58.9771C76.0015 59.1365 75.8764 59.3559 75.8764 59.5548C75.8764 59.7313 76.0745 60.5501 76.3167 61.3745C76.5588 62.1989 76.8416 63.1023 76.9449 63.3819C77.0606 63.6948 77.2542 63.9451 77.4481 64.0328C77.6667 64.1316 79.1305 64.175 82.2262 64.1745C84.6809 64.1741 87.0166 64.1205 87.4169 64.0556C87.817 63.9906 88.46 63.7941 88.8457 63.619C89.2313 63.4439 89.7922 63.1013 90.092 62.8576C90.3918 62.6139 90.8331 62.1272 91.0726 61.7761C91.3121 61.425 91.6192 60.7831 91.755 60.3498C91.9828 59.6227 92.0018 59.1965 91.9999 54.8328L91.998 50.1036L86.0142 40.569L80.0304 31.0343L80.2202 30.5886C80.3245 30.3435 80.4107 29.7803 80.4114 29.3371C80.4125 28.7125 80.3397 28.388 80.0872 27.8942C79.908 27.5438 79.5278 27.0587 79.2419 26.8161C78.9561 26.5736 78.4657 26.2883 78.1521 26.1823C77.8385 26.0763 77.3247 25.9945 77.0104 26.0003C76.6961 26.0061 76.2877 26.0562 76.1029 26.1115ZM78.0971 28.2737C78.5171 28.6554 78.564 28.7604 78.564 29.3185C78.564 29.7487 78.4861 30.0421 78.31 30.2762C78.1391 30.5033 75.7477 31.8383 70.9973 34.3587L63.9386 38.1039L63.8761 36.6848C63.8214 35.4438 63.7812 35.2398 63.5557 35.0588C63.3064 34.8589 63.5198 34.7338 69.8684 31.3593C75.7575 28.2289 76.5007 27.8658 77.0346 27.858C77.5447 27.8506 77.6971 27.9102 78.0971 28.2737ZM83.7544 40.3712C86.3862 44.5648 88.7554 48.3447 89.0193 48.7708L89.4991 49.5457H88.333H87.1669L80.7403 42.1705C77.2058 38.1142 74.3221 34.7559 74.3321 34.7076C74.3421 34.6594 75.3236 34.1041 76.5131 33.4736C78.4609 32.4413 78.6905 32.3482 78.8226 32.537C78.9032 32.6521 81.1227 36.1776 83.7544 40.3712ZM62.001 39.1934V41.735H58.5009H55.0008V39.1934V36.6518H58.5009H62.001V39.1934ZM67.5324 49.0862L69.8762 54.5738V59.8084V65.0431H65.8996H61.9229L59.0738 61.5076C57.5066 59.5631 56.1055 57.8893 55.9598 57.7882C55.7306 57.6289 54.1368 57.6043 44.0248 57.6043H32.3545L32.3965 55.4657C32.4298 53.7677 32.481 53.2499 32.6451 52.9525C32.7589 52.7466 33.0119 52.4179 33.2073 52.2223C33.4028 52.0266 33.7437 51.7907 33.9649 51.698C34.2848 51.5639 35.5781 51.529 40.2776 51.5275C44.7189 51.5261 46.2632 51.4876 46.49 51.3725C46.6802 51.2762 47.6758 49.809 49.1776 47.4121L51.5632 43.6048L58.3759 43.6017L65.1886 43.5986L67.5324 49.0862ZM52.8454 45.8573C52.7336 45.9426 51.5341 47.7697 50.1798 49.9176C48.8254 52.0656 47.6441 53.9938 47.5545 54.2027C47.4259 54.5026 47.4234 54.6456 47.5423 54.8821C47.6252 55.047 47.8326 55.2518 48.0031 55.3375C48.2332 55.4529 49.4403 55.4951 52.6882 55.5008L57.0634 55.5085L58.9384 57.8553C60.0088 59.1948 60.9526 60.2595 61.1376 60.3358C61.3462 60.4221 62.4225 60.4563 64.1562 60.4318C66.5989 60.3974 66.875 60.3718 67.1133 60.1577C67.3658 59.9308 67.3762 59.8099 67.3762 57.0985V54.2756L65.6147 50.174C64.4718 47.5127 63.7598 46.0076 63.5869 45.8874C63.361 45.7306 62.5368 45.7023 58.1845 45.7023C54.2674 45.7023 53.0004 45.7391 52.8454 45.8573ZM64.0884 51.2048L65.6261 54.7855V56.6908V58.5962L63.7198 58.5902L61.8135 58.5843L59.8846 56.1726C58.8235 54.8462 57.9516 53.7489 57.947 53.7343C57.9423 53.7197 56.1571 53.6779 53.9798 53.6413L50.0213 53.575L51.9172 50.5675L53.8133 47.5599L58.182 47.592L62.5508 47.624L64.0884 51.2048ZM90.2281 55.4657C90.1902 59.5611 90.1831 59.6624 89.8978 60.2314C89.7376 60.5512 89.3409 61.059 89.0165 61.36C88.6665 61.6847 88.1726 61.991 87.802 62.1131C87.2594 62.2917 86.6049 62.3145 82.8219 62.2861L78.4665 62.2535L78.3121 61.7348C78.2272 61.4494 78.1215 61.0729 78.0772 60.898L77.9967 60.5798H80.0054C81.5153 60.5798 82.0978 60.5354 82.3516 60.401C82.6147 60.2617 83.1986 59.2377 85.0017 55.7531L87.3142 51.2839L88.7905 51.2826L90.267 51.2814L90.2281 55.4657ZM57.3004 62.1894C58.5106 63.6884 59.5009 64.9436 59.5009 64.979C59.5009 65.0142 53.8513 65.0431 46.9462 65.0431C39.4798 65.0431 34.2672 64.9962 34.0847 64.9274C33.9159 64.8638 33.5719 64.6323 33.3202 64.4131C33.0684 64.1938 32.769 63.8413 32.6549 63.63C32.4954 63.3344 32.4359 62.8077 32.3979 61.3547L32.3484 59.464H43.7241H55.0998L57.3004 62.1894ZM62.751 69.1964V71.49H51.1257H39.5003V69.1964V66.9028H51.1257H62.751V69.1964ZM68.6937 73.4181C69.1035 73.524 69.6701 73.745 69.953 73.9094C70.2359 74.0737 70.719 74.4614 71.0265 74.7709C71.3342 75.0803 71.7302 75.6263 71.9065 75.9842C72.0829 76.3423 72.2956 76.9803 72.3791 77.4023C72.4936 77.981 72.4968 78.3615 72.3923 78.952C72.3161 79.3824 72.0849 80.0752 71.8785 80.4915C71.6622 80.9282 71.2369 81.4957 70.8734 81.833C70.5268 82.1544 69.9352 82.5574 69.5587 82.7283C69.1822 82.8993 68.5231 83.0896 68.0939 83.1511C67.662 83.2131 60.0861 83.2637 51.1257 83.2645C40.4639 83.2657 34.6603 83.2219 34.1252 83.1366C33.6783 83.0653 33.0191 82.8744 32.6604 82.7122C32.3016 82.5502 31.7246 82.1544 31.378 81.833C31.0145 81.4957 30.5892 80.9282 30.3728 80.4915C30.1664 80.0752 29.9353 79.3824 29.8591 78.952C29.7547 78.3618 29.7578 77.9809 29.8722 77.4023C29.9556 76.9803 30.1584 76.352 30.3231 76.0059C30.4878 75.6599 30.8838 75.1139 31.2032 74.7925C31.5227 74.4712 32.0169 74.073 32.3014 73.9076C32.5859 73.7422 33.1268 73.5247 33.5032 73.4244C34.0891 73.2683 36.6205 73.2408 51.0682 73.2339C65.9389 73.2267 68.0373 73.2486 68.6937 73.4181ZM34.0389 75.6354C33.6209 75.8284 33.2563 76.1183 33.014 76.4498C32.8073 76.7329 32.5719 77.1635 32.4909 77.4066C32.4091 77.6524 32.3739 78.1373 32.4115 78.4987C32.4488 78.8562 32.5666 79.3165 32.6735 79.5215C32.7804 79.7265 33.0441 80.0692 33.2598 80.283C33.4753 80.4968 33.8285 80.7662 34.0447 80.8818C34.3059 81.0214 34.7342 81.0929 35.3225 81.0951C36.0925 81.098 36.2867 81.0497 36.8193 80.7232C37.1943 80.4932 37.5748 80.1175 37.8022 79.7527C38.0679 79.3265 38.1879 78.9556 38.2252 78.446C38.2649 77.9001 38.2115 77.5837 37.9959 77.0864C37.8367 76.7192 37.5063 76.2613 37.2335 76.0297C36.9688 75.805 36.5343 75.5564 36.268 75.4773C36.0016 75.3981 35.5371 75.3338 35.2357 75.3346C34.9208 75.3352 34.4117 75.4633 34.0389 75.6354ZM41.8605 75.6796C41.4634 75.8854 41.0515 76.2251 40.8455 76.5165C40.6549 76.7864 40.4356 77.3139 40.3584 77.6889C40.2541 78.1944 40.2542 78.5023 40.3589 78.879C40.4364 79.1585 40.6265 79.5718 40.7814 79.7973C40.9363 80.023 41.2598 80.3634 41.5004 80.5539C41.741 80.7444 42.1924 80.967 42.5036 81.0485C42.8418 81.1373 43.3053 81.1617 43.6565 81.1095C43.9895 81.0601 44.502 80.8509 44.8406 80.6264C45.2245 80.3717 45.5591 80.0093 45.7786 79.6106C46.0427 79.1308 46.1198 78.8226 46.1199 78.2469C46.12 77.7916 46.0318 77.3102 45.8924 77.0059C45.7671 76.7327 45.4491 76.3212 45.1855 76.0916C44.9219 75.8621 44.5211 75.5975 44.2949 75.5038C44.0686 75.4101 43.5787 75.3333 43.2062 75.3333C42.7077 75.3333 42.3525 75.4247 41.8605 75.6796ZM50.0006 75.5307C49.76 75.6339 49.3754 75.8967 49.1459 76.1148C48.9165 76.3327 48.6122 76.7343 48.4699 77.0071C48.3003 77.3318 48.2108 77.7384 48.2105 78.1849C48.2102 78.5982 48.3082 79.0864 48.4595 79.4247C48.5966 79.7315 48.9092 80.157 49.1541 80.3702C49.399 80.5835 49.8588 80.8562 50.1759 80.9764C50.5822 81.1302 50.9342 81.1734 51.3679 81.1224C51.7066 81.0826 52.1983 80.9406 52.461 80.8067C52.7235 80.6728 53.09 80.4046 53.2754 80.2109C53.4608 80.0172 53.708 79.6354 53.8246 79.3627C53.9414 79.0899 54.0376 78.5599 54.0386 78.1849C54.0398 77.7347 53.9524 77.3345 53.7815 77.0071C53.6391 76.7343 53.3349 76.3326 53.1055 76.1145C52.876 75.8963 52.4791 75.6314 52.2235 75.5256C51.9678 75.4199 51.4616 75.3356 51.0984 75.3382C50.7353 75.3409 50.2413 75.4274 50.0006 75.5307ZM57.7848 75.5931C57.494 75.7358 57.0791 76.0525 56.8629 76.2968C56.6466 76.5411 56.3922 76.9246 56.2977 77.149C56.2032 77.3734 56.1258 77.8294 56.1258 78.1624C56.1258 78.4953 56.1898 78.9574 56.2681 79.1892C56.3463 79.4209 56.5451 79.7906 56.7098 80.0108C56.8746 80.2309 57.251 80.5515 57.5465 80.7232C57.8419 80.8949 58.3455 81.071 58.6655 81.1145C59.0162 81.1621 59.4839 81.1281 59.8429 81.0288C60.2681 80.9113 60.6222 80.6822 61.0808 80.2283C61.6152 79.6993 61.7504 79.472 61.8848 78.8764C62.0131 78.3072 62.0153 78.0423 61.8947 77.5838C61.8115 77.2666 61.5894 76.7864 61.4012 76.5165C61.1955 76.2214 60.7928 75.888 60.3908 75.6796C59.8894 75.4199 59.5463 75.3333 59.0179 75.3335C58.5548 75.3335 58.1323 75.4225 57.7848 75.5931ZM65.6835 75.6268C65.337 75.7869 64.9065 76.091 64.727 76.3026C64.5475 76.5141 64.3036 76.9391 64.1851 77.247C64.0384 77.6276 63.9877 78.0237 64.0264 78.4861C64.0652 78.9502 64.2001 79.3531 64.4517 79.7568C64.666 80.1006 65.0571 80.4932 65.3865 80.6952C65.7136 80.8958 66.22 81.0738 66.5856 81.1167C67.0187 81.1676 67.4167 81.1258 67.8464 80.9842C68.1918 80.8704 68.6772 80.582 68.9251 80.3432C69.173 80.1044 69.465 79.738 69.574 79.5289C69.683 79.3199 69.8035 78.8486 69.8416 78.4819C69.8909 78.0088 69.8479 77.6511 69.6939 77.2512C69.5745 76.9411 69.3298 76.5141 69.1503 76.3026C68.9708 76.091 68.5403 75.7869 68.1938 75.6268C67.797 75.4436 67.3322 75.3358 66.9386 75.3358C66.5451 75.3358 66.0802 75.4436 65.6835 75.6268ZM35.7215 77.2017C35.9564 77.2829 36.1776 77.487 36.2924 77.7286C36.3954 77.9455 36.4494 78.2776 36.4124 78.4667C36.3754 78.6556 36.2036 78.9207 36.0307 79.0556C35.858 79.1903 35.5303 79.3007 35.3028 79.3007C35.0522 79.3007 34.7583 79.1891 34.5572 79.0175C34.3069 78.8039 34.2252 78.619 34.2252 78.2661C34.2252 77.9851 34.3177 77.6959 34.4564 77.5428C34.5836 77.4026 34.8002 77.2421 34.9377 77.1862C35.0752 77.1304 35.2215 77.0812 35.2628 77.0769C35.3041 77.0726 35.5105 77.1287 35.7215 77.2017ZM43.6915 77.2172C43.8717 77.2987 44.0993 77.519 44.1974 77.7069C44.2954 77.8949 44.3755 78.1587 44.3755 78.2932C44.3755 78.4277 44.2299 78.7094 44.0518 78.9192C43.7908 79.2268 43.6325 79.3007 43.2337 79.3007C42.8752 79.3007 42.6546 79.2169 42.4323 78.9963C42.2295 78.7953 42.1254 78.5522 42.1254 78.2801C42.1254 78.0534 42.2158 77.7402 42.3263 77.5837C42.4368 77.4272 42.6477 77.2509 42.7951 77.192C42.9424 77.133 43.1306 77.0812 43.2133 77.0769C43.2961 77.0726 43.5112 77.1358 43.6915 77.2172ZM51.9695 77.5098C52.1242 77.6841 52.2507 77.9659 52.2507 78.1359C52.2507 78.306 52.1685 78.6029 52.0678 78.7958C51.9672 78.9889 51.794 79.1813 51.6826 79.2237C51.5713 79.266 51.3207 79.3007 51.1257 79.3007C50.9307 79.3007 50.68 79.266 50.5688 79.2237C50.4574 79.1813 50.2842 78.9889 50.1835 78.7958C50.0829 78.6029 50.0006 78.3153 50.0006 78.1566C50.0006 77.9979 50.091 77.7402 50.2015 77.5837C50.312 77.4272 50.5229 77.2488 50.6703 77.1873C50.8177 77.1257 51.1069 77.1018 51.3132 77.134C51.5194 77.1664 51.8147 77.3354 51.9695 77.5098ZM59.8447 77.5098C60.0216 77.7092 60.1259 77.9874 60.1259 78.2594C60.1259 78.5535 60.0277 78.7895 59.8191 78.9963C59.5968 79.2169 59.3762 79.3007 59.0177 79.3007C58.6189 79.3007 58.4605 79.2268 58.1995 78.9192C58.0215 78.7094 57.8779 78.4166 57.8803 78.2683C57.8828 78.1201 57.9593 77.8656 58.0504 77.7026C58.1414 77.5397 58.3504 77.3302 58.5146 77.237C58.679 77.1439 58.9822 77.0958 59.1884 77.1303C59.3947 77.1646 59.6899 77.3354 59.8447 77.5098ZM67.7324 77.4948C67.9397 77.697 68.0262 77.9217 68.0262 78.2578C68.0262 78.6197 67.9464 78.8023 67.6942 79.0175C67.4897 79.1919 67.1995 79.3007 66.9386 79.3007C66.6733 79.3007 66.3865 79.191 66.1706 79.0068C65.914 78.7879 65.8261 78.5997 65.8261 78.269C65.8261 78.0036 65.9241 77.7172 66.0699 77.5565C66.204 77.4086 66.4261 77.2409 66.5636 77.1836C66.7011 77.1263 66.9543 77.1084 67.1262 77.1438C67.298 77.1793 67.5709 77.3372 67.7324 77.4948Z" fill="#292929"/>
</svg>
