<svg width="120" height="120" viewBox="0 0 120 120" fill="none" xmlns="http://www.w3.org/2000/svg">
<circle cx="60" cy="60" r="60" fill="#F4F4F4"/>
<path fill-rule="evenodd" clip-rule="evenodd" d="M38.7181 28.1605C38.4483 28.2413 37.9345 28.5106 37.5766 28.7588C37.2184 29.0069 36.7399 29.4925 36.5132 29.838C36.2865 30.1834 36.011 30.7278 35.9007 31.0478C35.7907 31.3678 35.7005 32.1158 35.7005 32.7101V33.7905L34.9733 33.9743C34.5732 34.0753 33.9313 34.2723 33.5468 34.4122C33.1623 34.552 32.5043 34.8843 32.0845 35.1504C31.6649 35.4166 30.932 36.0304 30.4558 36.5141C29.9797 36.998 29.3502 37.8441 29.057 38.3942C28.7639 38.9443 28.4061 39.8472 28.262 40.4008C28.0335 41.2783 28 44.1529 28 62.9018C28 81.6508 28.0335 84.5254 28.262 85.4029C28.4061 85.9565 28.7687 86.8681 29.0675 87.4292C29.3664 87.9901 30.0473 88.8855 30.5805 89.4188C31.1138 89.9522 32.0089 90.6332 32.5697 90.9323C33.1306 91.2311 34.042 91.5938 34.5954 91.7379C35.4759 91.9673 38.6435 92 60 92C81.3565 92 84.5242 91.9673 85.4046 91.7379C85.958 91.5938 86.8694 91.2311 87.4303 90.9323C87.9911 90.6332 88.8862 89.9522 89.4195 89.4188C89.9527 88.8855 90.6336 87.9901 90.9325 87.4292C91.2313 86.8681 91.5939 85.9565 91.738 85.4029C91.9665 84.5254 92 81.6508 92 62.9018C92 44.1529 91.9665 41.2783 91.738 40.4008C91.5939 39.8472 91.2433 38.958 90.9591 38.4245C90.6748 37.891 90.0615 37.0552 89.5961 36.5672C89.1306 36.0792 88.3905 35.4517 87.9511 35.173C87.5118 34.8944 86.8377 34.552 86.4532 34.4122C86.0687 34.2723 85.4349 34.0776 85.0447 33.9791L84.3356 33.8003L84.2687 32.4754C84.2266 31.6424 84.0809 30.9026 83.8763 30.4826C83.6975 30.1151 83.2946 29.5579 82.9813 29.2445C82.668 28.9311 82.1633 28.5462 81.8596 28.3892C81.556 28.2321 80.8034 28.0676 80.1874 28.0234C79.2847 27.9589 78.8945 28.0176 78.1769 28.3264C77.6871 28.5373 77.0086 29.017 76.6693 29.3928C76.3299 29.7685 75.9372 30.3513 75.7967 30.688C75.656 31.0245 75.4984 31.8634 75.4462 32.5518L75.3516 33.8037H73.262H71.1725L71.0778 32.5518C71.0256 31.8634 70.868 31.0245 70.7274 30.688C70.5869 30.3513 70.1941 29.7685 69.8548 29.3928C69.5155 29.017 68.837 28.5373 68.3472 28.3264C67.6295 28.0176 67.2394 27.9589 66.3367 28.0234C65.7206 28.0676 64.968 28.2321 64.6645 28.3892C64.3607 28.5462 63.8561 28.9311 63.5428 29.2445C63.2294 29.5579 62.8266 30.1151 62.6478 30.4826C62.4431 30.9028 62.2975 31.6426 62.2554 32.4772L62.1883 33.8037H59.9819H57.7754V32.7216C57.7754 32.1264 57.6536 31.2821 57.5047 30.8451C57.356 30.4081 56.9364 29.7436 56.5726 29.3686C56.2086 28.9936 55.6572 28.5556 55.3472 28.3952C55.0371 28.2348 54.2794 28.0676 53.6633 28.0234C52.7606 27.9589 52.3705 28.0176 51.6528 28.3264C51.163 28.5373 50.4845 29.017 50.1452 29.3928C49.8059 29.7685 49.4131 30.3513 49.2726 30.688C49.132 31.0245 48.9744 31.8634 48.9222 32.5518L48.8276 33.8037H46.738H44.6484L44.5538 32.5518C44.5016 31.8634 44.3462 31.0296 44.2081 30.6993C44.0702 30.3691 43.698 29.8032 43.3809 29.4422C43.064 29.0811 42.419 28.6061 41.9477 28.3865C41.3573 28.1116 40.7983 27.9914 40.1497 28.0005C39.6321 28.0077 38.9878 28.0796 38.7181 28.1605ZM40.9443 30.6602C41.2685 30.8141 41.6459 31.157 41.7829 31.4219C41.9744 31.7925 42.0319 32.6278 42.0314 35.0361C42.0309 37.7987 41.9929 38.2307 41.7095 38.6956C41.5328 38.9856 41.1493 39.3217 40.8573 39.4426C40.5442 39.5723 40.084 39.617 39.7351 39.5514C39.3816 39.4852 38.9702 39.2343 38.7123 38.9279C38.4751 38.6458 38.2325 38.1566 38.1733 37.8406C38.1141 37.5245 38.0916 36.0405 38.1236 34.5426C38.1724 32.2591 38.2323 31.7422 38.4941 31.3428C38.6659 31.0808 39.051 30.7602 39.3497 30.6301C39.6485 30.5002 39.9969 30.3908 40.1239 30.3871C40.2509 30.3835 40.62 30.5064 40.9443 30.6602ZM54.5241 30.8691C54.7594 31.0416 55.0438 31.445 55.1562 31.7658C55.2773 32.1117 55.3643 33.3929 55.3701 34.9175C55.3754 36.3301 55.3046 37.7482 55.2127 38.0686C55.1208 38.389 54.8774 38.8301 54.6719 39.0491C54.4664 39.2678 54.0535 39.4929 53.7544 39.549C53.4316 39.6095 52.9602 39.5465 52.5952 39.394C52.2406 39.2457 51.8664 38.9173 51.7118 38.6182C51.4976 38.2037 51.4439 37.4793 51.4439 35.0019C51.4439 32.6322 51.502 31.7911 51.6916 31.4245C51.828 31.1609 52.1937 30.8169 52.5045 30.6599C52.8426 30.4891 53.2757 30.4108 53.5829 30.4649C53.8652 30.5147 54.2888 30.6967 54.5241 30.8691ZM67.4683 30.6602C67.7926 30.8141 68.1699 31.157 68.307 31.4219C68.4981 31.7918 68.5562 32.6245 68.5562 35.0019C68.5562 37.4793 68.5024 38.2037 68.2882 38.6182C68.1336 38.9173 67.7594 39.2457 67.4048 39.394C67.0306 39.5502 66.5698 39.6098 66.2287 39.5458C65.9061 39.4852 65.4843 39.2225 65.2364 38.9279C64.9992 38.6458 64.7565 38.1566 64.6973 37.8406C64.6381 37.5245 64.6157 36.0405 64.6477 34.5426C64.6965 32.2591 64.7564 31.7422 65.0182 31.3428C65.19 31.0808 65.575 30.7602 65.8738 30.6301C66.1726 30.5002 66.521 30.3908 66.648 30.3871C66.7749 30.3835 67.144 30.5064 67.4683 30.6602ZM81.0481 30.8691C81.2834 31.0416 81.5678 31.445 81.6803 31.7658C81.8014 32.1117 81.8883 33.3929 81.8942 34.9175C81.8995 36.3301 81.8286 37.7482 81.7367 38.0686C81.6448 38.389 81.4015 38.8301 81.196 39.0491C80.9905 39.2678 80.5639 39.4955 80.2478 39.5547C79.9167 39.6168 79.4486 39.5694 79.1427 39.4426C78.8507 39.3217 78.4673 38.9856 78.2905 38.6956C78.0071 38.2307 77.9691 37.7987 77.9686 35.0361C77.9681 32.5282 78.0213 31.8007 78.2357 31.386C78.3829 31.1012 78.7487 30.7583 79.0486 30.6243C79.3484 30.4901 79.8246 30.4197 80.107 30.468C80.3893 30.5161 80.8128 30.6967 81.0481 30.8691ZM48.9251 37.4889C48.9853 38.2852 49.1636 39.0693 49.3919 39.5408C49.595 39.9607 50.0968 40.5995 50.507 40.9606C50.917 41.3216 51.5547 41.7076 51.9242 41.8184C52.2936 41.9291 53.0146 42.0196 53.5264 42.0196C54.1846 42.0196 54.7173 41.8899 55.3463 41.5763C55.8356 41.3324 56.4646 40.8554 56.7442 40.5161C57.0237 40.1769 57.3702 39.5538 57.5139 39.1317C57.6577 38.7096 57.7754 37.8773 57.7754 37.2821V36.2H60H62.2246L62.2256 37.2698C62.2261 37.8583 62.3062 38.6265 62.4036 38.9772C62.501 39.3277 62.8292 39.9407 63.1329 40.3391C63.4474 40.7515 64.0794 41.2694 64.6001 41.5416C65.2797 41.8966 65.7581 42.0196 66.4595 42.0196C66.9791 42.0196 67.7064 41.9291 68.0758 41.8184C68.4453 41.7076 69.083 41.3216 69.493 40.9606C69.9032 40.5995 70.405 39.9607 70.6081 39.5408C70.8364 39.0693 71.0147 38.2852 71.0749 37.4889L71.1725 36.2H73.262H75.3516L75.4476 37.4695C75.5005 38.1679 75.6918 39.0729 75.8727 39.4807C76.0537 39.8886 76.5307 40.5187 76.9326 40.8809C77.3346 41.2431 77.9221 41.6475 78.2379 41.7795C78.554 41.9116 79.3005 42.0196 79.8968 42.0196C80.7203 42.0196 81.1948 41.913 81.8704 41.5763C82.3596 41.3324 82.9887 40.8554 83.2683 40.5161C83.5477 40.1769 83.8942 39.5538 84.038 39.1317C84.1817 38.7096 84.2995 37.9074 84.2995 37.349C84.2995 36.3404 84.3022 36.3347 84.7461 36.4461C84.9918 36.5079 85.5502 36.7246 85.9867 36.928C86.4234 37.1312 87.211 37.7251 87.7368 38.2477C88.4129 38.9195 88.8086 39.4985 89.0875 40.2236C89.4111 41.0654 89.4966 41.6871 89.5646 43.6885L89.6474 46.1276H60H30.3526L30.4354 43.6885C30.5034 41.6871 30.5889 41.0654 30.9125 40.2236C31.1914 39.4985 31.5871 38.9195 32.2632 38.2477C32.789 37.7251 33.5766 37.1312 34.0133 36.928C34.4498 36.7246 35.0082 36.5079 35.2539 36.4461C35.6973 36.3349 35.7005 36.3416 35.7016 37.3369C35.7021 37.8884 35.7822 38.6265 35.8795 38.9772C35.9769 39.3277 36.3051 39.9407 36.6089 40.3391C36.9234 40.7515 37.5553 41.2694 38.0761 41.5416C38.8006 41.9202 39.2195 42.0196 40.0892 42.0196C40.6932 42.0196 41.446 41.9116 41.7621 41.7795C42.0779 41.6475 42.6654 41.2431 43.0674 40.8809C43.4693 40.5187 43.9463 39.8886 44.1273 39.4807C44.3082 39.0729 44.4995 38.1679 44.5524 37.4695L44.6484 36.2H46.738H48.8276L48.9251 37.4889ZM89.5653 66.6247L89.5187 84.5543L89.106 85.5813C88.8149 86.3052 88.3855 86.9159 87.6514 87.6503C86.9171 88.3846 86.3066 88.8141 85.5829 89.1053L84.5562 89.5181H60H35.4439L34.4171 89.1053C33.6934 88.8141 33.0829 88.3846 32.3486 87.6503C31.6145 86.9159 31.1851 86.3052 30.894 85.5813L30.4813 84.5543L30.4347 66.6247L30.388 48.6951H60H89.612L89.5653 66.6247ZM38.8898 54.76C38.5263 54.8927 37.997 55.2191 37.7136 55.4854C37.4302 55.7517 37.0924 56.2175 36.9629 56.5205C36.7911 56.9222 36.7273 57.9319 36.7273 60.2519C36.7273 62.8447 36.7784 63.5336 37.0047 63.9802C37.1571 64.2814 37.4073 64.6708 37.5608 64.8456C37.7141 65.0204 38.1253 65.3093 38.4744 65.4875C39.0301 65.7711 39.5065 65.8117 42.2888 65.8117C45.1067 65.8117 45.5428 65.7737 46.1243 65.4769C46.4852 65.2927 46.977 64.9084 47.2171 64.6229C47.4572 64.3376 47.745 63.6957 47.8566 63.1968C47.9832 62.6312 48.0363 61.2883 47.9978 59.6297C47.937 57.0209 47.9259 56.9538 47.4225 56.1429C47.103 55.6283 46.6505 55.1807 46.2246 54.9582C45.6171 54.6405 45.2033 54.5957 42.5455 54.5596C40.3116 54.5293 39.3829 54.5801 38.8898 54.76ZM56.5154 54.7655C56.152 54.8951 55.6335 55.2129 55.3634 55.4717C55.0934 55.7305 54.7493 56.2647 54.5987 56.6589C54.375 57.245 54.3355 57.9526 54.3819 60.537C54.4358 63.5499 54.4578 63.7265 54.8509 64.2998C55.0776 64.6305 55.534 65.0868 55.8652 65.3136C56.4533 65.7167 56.5473 65.7261 60 65.7261C63.4527 65.7261 63.5467 65.7167 64.1348 65.3136C64.466 65.0868 64.9224 64.6305 65.1491 64.2998C65.5422 63.7265 65.5642 63.5499 65.6181 60.537C65.6652 57.9172 65.6267 57.2494 65.3931 56.6379C65.2382 56.232 64.8491 55.6696 64.5283 55.3878C64.2076 55.1063 63.6543 54.7949 63.2987 54.6962C62.9433 54.5974 61.4203 54.5195 59.9144 54.5231C58.0386 54.5277 56.9684 54.6039 56.5154 54.7655ZM79.1706 58.7035L76.3558 61.5229L74.9698 60.1699C74.2077 59.4256 73.3762 58.7646 73.1222 58.7009C72.8178 58.6244 72.5163 58.6795 72.2368 58.8627C72.0036 59.0155 71.7662 59.3265 71.7093 59.5539C71.6521 59.7813 71.6502 60.1083 71.7048 60.2803C71.7594 60.4525 72.6711 61.4548 73.7309 62.5078C74.9105 63.6798 75.8463 64.468 76.1441 64.5404C76.5994 64.651 76.8578 64.431 80.2083 61.0798C82.5807 58.7068 83.7861 57.3806 83.7861 57.1435C83.7861 56.947 83.6264 56.5831 83.4314 56.3351C83.1808 56.0164 82.9168 55.8841 82.5311 55.8841C82.0536 55.8841 81.6335 56.2365 79.1706 58.7035ZM45.2492 57.2876C45.3916 57.43 45.4545 58.3196 45.4545 60.1853C45.4545 62.4044 45.4073 62.9246 45.1857 63.1464C44.965 63.3671 44.4536 63.4153 42.3327 63.4153C40.1686 63.4153 39.698 63.3693 39.436 63.1321C39.1594 62.8818 39.123 62.5518 39.123 60.2965C39.123 58.8646 39.2007 57.5991 39.3001 57.4133C39.4642 57.1069 39.6839 57.0822 42.2605 57.0822C44.1971 57.0822 45.1063 57.1447 45.2492 57.2876ZM62.8095 57.1861C63.0415 57.2751 63.0802 57.7022 63.0802 60.1755C63.0802 62.8531 63.0564 63.0737 62.7493 63.2382C62.5658 63.3363 61.3397 63.4153 60 63.4153C58.6603 63.4153 57.4342 63.3363 57.2507 63.2382C56.9436 63.0737 56.9198 62.8531 56.9198 60.1714C56.9198 58.02 56.9744 57.2599 57.1337 57.1955C57.2514 57.1481 58.5157 57.1031 59.9432 57.0957C61.3709 57.0884 62.6606 57.1289 62.8095 57.1861ZM38.44 71.4353C38.1146 71.6101 37.6152 72.0406 37.3305 72.3921L36.8128 73.0314L36.7576 76.311C36.7237 78.3285 36.7735 79.8303 36.8871 80.2135C36.9901 80.5607 37.3704 81.1063 37.7456 81.4452C38.1159 81.78 38.7438 82.1414 39.1408 82.2484C39.5891 82.3692 40.9371 82.4212 42.7012 82.386C45.3582 82.3327 45.5879 82.3018 46.2842 81.9031C46.7426 81.6405 47.2024 81.1805 47.482 80.705C47.9276 79.9469 47.9358 79.877 47.9358 76.8518C47.9358 75.1573 47.877 73.5605 47.8051 73.3032C47.733 73.0462 47.4262 72.5532 47.1232 72.208C46.8201 71.8627 46.3232 71.4762 46.0189 71.349C45.6207 71.1827 44.5633 71.1178 42.2489 71.1178C39.4425 71.1178 38.9565 71.1584 38.44 71.4353ZM55.8657 71.612C55.3479 71.9403 54.9637 72.3601 54.7198 72.864C54.386 73.5538 54.3533 73.8987 54.3567 76.692C54.36 79.3194 54.4065 79.8632 54.6803 80.4662C54.8562 80.8537 55.2589 81.366 55.5749 81.6048C55.8912 81.8436 56.4578 82.1229 56.8342 82.2258C57.2107 82.3286 58.6353 82.4128 60 82.4128C61.3647 82.4128 62.7893 82.3286 63.1658 82.2258C63.5422 82.1229 64.1088 81.8436 64.4251 81.6048C64.7411 81.366 65.1438 80.8537 65.3197 80.4662C65.5935 79.8632 65.64 79.3194 65.6433 76.692C65.6467 73.8987 65.614 73.5538 65.2802 72.864C65.0363 72.3601 64.6522 71.9403 64.1343 71.612L63.3554 71.1178H60H56.6446L55.8657 71.612ZM73.9433 71.3564C73.6592 71.4802 73.179 71.8637 72.8763 72.2086C72.5736 72.5535 72.267 73.0462 72.1949 73.3032C72.123 73.5605 72.0642 75.1573 72.0642 76.8518C72.0642 79.8212 72.0796 79.9597 72.4901 80.6771C72.7526 81.1356 73.2126 81.5955 73.688 81.8752C74.4255 82.3089 74.5862 82.3317 77.2988 82.386C79.0629 82.4212 80.4109 82.3692 80.8592 82.2484C81.2562 82.1414 81.8841 81.78 82.2544 81.4452C82.6296 81.1063 83.0099 80.5607 83.1129 80.2135C83.2265 79.8305 83.2763 78.3324 83.2424 76.3245L83.1872 73.0585L82.7066 72.4289C82.4424 72.0827 81.9256 71.646 81.5584 71.4586C80.9602 71.1532 80.556 71.1185 77.6753 71.1245C75.4067 71.1293 74.3078 71.1976 73.9433 71.3564ZM45.1236 73.6913C45.4299 73.8554 45.4545 74.0752 45.4545 76.6524C45.4545 78.5895 45.3921 79.4989 45.2492 79.6418C45.1063 79.7848 44.1971 79.8472 42.2605 79.8472C39.6839 79.8472 39.4642 79.8226 39.3001 79.5162C39.2007 79.3302 39.123 78.0604 39.123 76.6185C39.123 74.5136 39.1714 74.0037 39.3918 73.783C39.6124 73.5626 40.1222 73.5141 42.2267 73.5141C43.6682 73.5141 44.9376 73.5918 45.1236 73.6913ZM62.8749 73.7195C63.0176 73.8623 63.0802 74.7655 63.0802 76.6807C63.0802 78.5959 63.0176 79.4991 62.8749 79.6418C62.7327 79.7841 61.8481 79.8472 60 79.8472C58.1519 79.8472 57.2673 79.7841 57.1251 79.6418C56.9824 79.4991 56.9198 78.5959 56.9198 76.6807C56.9198 74.7655 56.9824 73.8623 57.1251 73.7195C57.2673 73.5773 58.1519 73.5141 60 73.5141C61.8481 73.5141 62.7327 73.5773 62.8749 73.7195ZM80.6082 73.783C80.8286 74.0037 80.877 74.5136 80.877 76.6185C80.877 78.0604 80.7993 79.3302 80.6999 79.5162C80.5358 79.8226 80.3161 79.8472 77.7395 79.8472C75.8029 79.8472 74.8937 79.7848 74.7508 79.6418C74.6079 79.4989 74.5455 78.59 74.5455 76.655C74.5455 74.1865 74.5792 73.8539 74.8449 73.699C75.0114 73.6019 76.2978 73.5222 77.7419 73.5193C79.8797 73.515 80.3867 73.5617 80.6082 73.783Z" fill="#292929"/>
</svg>
