<svg width="120" height="120" viewBox="0 0 120 120" fill="none" xmlns="http://www.w3.org/2000/svg">
<circle cx="60" cy="60" r="60" fill="#F4F4F4"/>
<path fill-rule="evenodd" clip-rule="evenodd" d="M51.5542 28.1498C51.4033 28.2228 51.1928 28.4668 51.0864 28.6919C50.9291 29.0245 50.8926 29.6317 50.8926 31.9242V34.747L50.3625 34.883C50.0708 34.9577 49.5394 35.1346 49.1815 35.276C48.8235 35.4174 48.1499 35.7947 47.6846 36.1145L46.8384 36.696L42.1605 36.7651C37.8408 36.8287 37.4068 36.8551 36.4914 37.1103C35.9463 37.2622 35.0384 37.6106 34.4739 37.8847C33.9094 38.1588 33.0925 38.6667 32.6584 39.0134C32.2243 39.3601 31.5989 39.9659 31.2686 40.3596C30.9384 40.7532 30.421 41.582 30.1188 42.2014C29.8166 42.8207 29.4412 43.8342 29.2847 44.4536L29 45.5797V64.2854C29 81.7064 29.0151 83.0616 29.2207 84.0163C29.342 84.5801 29.602 85.4376 29.7985 85.9218C29.995 86.406 30.3432 87.099 30.5725 87.4617C30.8017 87.8244 31.2995 88.4518 31.6786 88.8557C32.0579 89.2597 32.6942 89.813 33.0927 90.0853C33.4913 90.3576 34.2211 90.7726 34.7144 91.0073C35.2078 91.242 36.0886 91.5613 36.6718 91.717L37.7321 92H59.5C79.8796 92 81.3225 91.986 82.124 91.7795C82.5948 91.6583 83.4046 91.3887 83.9236 91.1802C84.4425 90.9717 85.236 90.5538 85.6871 90.2514C86.1382 89.949 86.8231 89.3742 87.2095 88.9739C87.5957 88.5738 88.1082 87.954 88.3486 87.5968C88.5889 87.2397 88.9561 86.5359 89.1647 86.0328C89.3733 85.5298 89.6465 84.6397 89.772 84.0547C89.9872 83.0513 90 81.9344 90 64.2854V45.5797L89.7153 44.4536C89.5588 43.8342 89.1834 42.8207 88.8812 42.2014C88.579 41.582 88.0616 40.7532 87.7314 40.3596C87.4011 39.9659 86.7757 39.3601 86.3416 39.0134C85.9075 38.6667 85.0906 38.1588 84.5261 37.8847C83.9616 37.6106 83.0537 37.263 82.5086 37.1123C81.6285 36.8688 81.1042 36.83 77.8319 36.7671L74.1466 36.696L73.653 36.3057C73.3816 36.091 72.8788 35.7768 72.5358 35.6074C72.1927 35.438 71.7437 35.2363 71.5378 35.159C71.332 35.0818 70.9287 34.9584 70.6415 34.885L70.1195 34.7513L70.0802 31.7405L70.0409 28.7298L69.6335 28.3649L69.2261 28L60.5271 28.0085C54.663 28.0141 51.7389 28.0602 51.5542 28.1498ZM67.6084 33.4484V36.3946L67.9095 36.6966C68.0752 36.8627 68.3418 37.0241 68.5021 37.0552C68.6623 37.0864 69.1747 37.1748 69.6406 37.252C70.1065 37.3291 70.8043 37.5426 71.1913 37.7264C71.5782 37.9102 72.1868 38.3534 72.5436 38.7112C72.9004 39.0692 73.3319 39.663 73.5024 40.0309C73.673 40.3989 73.849 40.8547 73.8938 41.044L73.9751 41.3881H60.498H47.0208L47.1014 41.044C47.1458 40.8547 47.3574 40.3621 47.5716 39.9492C47.7859 39.5363 48.1933 38.9705 48.4771 38.6917C48.7608 38.413 49.3267 38.0066 49.7345 37.7886C50.2431 37.5167 50.8399 37.3331 51.6337 37.2042C52.2704 37.101 52.8781 36.9444 52.984 36.8563C53.09 36.7681 53.2522 36.5148 53.3445 36.2933C53.4674 35.9983 53.5123 35.1705 53.5123 33.1966V30.5024H60.5603H67.6084V33.4484ZM57.1689 34.0186C56.9502 34.0822 56.6556 34.2818 56.514 34.4622C56.3704 34.6454 56.2566 34.9756 56.2566 35.2094C56.2566 35.4957 56.372 35.7581 56.6207 36.0371L56.9847 36.4457H60.498H64.0113L64.3753 36.0371C64.6239 35.7581 64.7393 35.4957 64.7393 35.2094C64.7393 34.9767 64.6257 34.6456 64.4842 34.4649C64.3437 34.286 64.021 34.0817 63.7669 34.0109C63.5059 33.9382 62.0555 33.8867 60.4356 33.8928C58.8576 33.8985 57.3876 33.9552 57.1689 34.0186ZM44.758 40.043C44.6229 40.4732 44.4807 41.3363 44.4421 41.9613C44.372 43.0935 44.3731 43.099 44.7528 43.5253L45.1339 43.9531H60.498H75.862L76.2431 43.5253C76.6228 43.099 76.6239 43.0935 76.5538 41.9613C76.5153 41.3363 76.3712 40.4669 76.2337 40.0292L75.9838 39.2333L78.6258 39.2942C81.0329 39.3495 81.3566 39.3836 82.2659 39.6787C82.8147 39.8567 83.6006 40.2048 84.0123 40.4523C84.4239 40.6998 85.0442 41.1815 85.3906 41.5227C85.737 41.8639 86.229 42.5304 86.4838 43.0038C86.7388 43.4772 87.0718 44.3068 87.2238 44.8472L87.5004 45.8299L87.5402 63.4721C87.567 75.3143 87.5365 81.5208 87.4479 82.3506C87.375 83.0305 87.2256 83.9032 87.1157 84.29C87.0058 84.6767 86.7397 85.3301 86.5244 85.7419C86.3091 86.1538 85.7961 86.8317 85.3845 87.2486C84.9351 87.7036 84.2861 88.1885 83.7604 88.4622C83.2788 88.7128 82.4087 89.0482 81.8269 89.2076L80.7689 89.4976H59.5H38.2311L37.1731 89.2076C36.5913 89.0482 35.7212 88.7128 35.2396 88.4622C34.7139 88.1885 34.0649 87.7036 33.6155 87.2486C33.2039 86.8317 32.6909 86.1538 32.4756 85.7419C32.2603 85.3301 31.9942 84.6767 31.8843 84.29C31.7744 83.9032 31.625 83.0305 31.5521 82.3506C31.4635 81.5208 31.433 75.3143 31.4598 63.4721L31.4996 45.8299L31.7762 44.8472C31.9282 44.3068 32.2612 43.4772 32.5162 43.0038C32.771 42.5304 33.263 41.8639 33.6094 41.5227C33.9558 41.1815 34.5761 40.6997 34.9877 40.4519C35.3994 40.2043 36.1853 39.8662 36.7342 39.7007C37.283 39.5353 37.9005 39.377 38.1063 39.3491C38.3122 39.3213 39.9482 39.29 41.742 39.2798L45.0035 39.261L44.758 40.043ZM38.8459 47.3806C38.5666 47.5078 38.1676 47.8194 37.9593 48.073C37.7508 48.3266 37.5162 48.7486 37.4378 49.0108C37.3408 49.336 37.2955 51.1989 37.2955 54.8702V60.253L37.644 60.9221C37.8978 61.4093 38.1582 61.6942 38.6008 61.9688L39.2091 62.346L44.7078 62.3823C49.5582 62.4145 50.2697 62.3946 50.7416 62.2138C51.036 62.1011 51.4509 61.8618 51.6638 61.6821C51.8766 61.5025 52.1539 61.1278 52.2798 60.8497C52.4909 60.3839 52.5091 59.9083 52.5116 54.8034C52.5139 50.0731 52.486 49.1947 52.3206 48.7976C52.2141 48.5417 51.9754 48.1704 51.7904 47.9725C51.6054 47.7746 51.2294 47.5083 50.955 47.3809C50.493 47.1663 50.0452 47.1492 44.9049 47.1492C39.7713 47.1492 39.3156 47.1666 38.8459 47.3806ZM49.9896 54.7449L49.9571 59.8436H44.9049H39.8528L39.8201 54.9015C39.8021 52.1834 39.8145 49.889 39.8474 49.8028C39.8941 49.6809 41.0295 49.6461 44.9648 49.6461H50.0222L49.9896 54.7449ZM57.1653 50.2343C57.0132 50.2639 56.7466 50.4576 56.5727 50.6649C56.3662 50.9111 56.2566 51.1934 56.2566 51.4797C56.2566 51.7969 56.3572 52.0185 56.6213 52.2833L56.9859 52.6491H61.4283C65.3024 52.6491 65.91 52.6233 66.1773 52.4476C66.346 52.3368 66.5466 52.0362 66.6233 51.7797C66.7382 51.3951 66.7258 51.2423 66.5534 50.9079C66.4318 50.6718 66.167 50.4279 65.9201 50.3244C65.5799 50.1819 64.6965 50.15 61.4687 50.1636C59.2539 50.173 57.3173 50.2048 57.1653 50.2343ZM57.0535 56.9007C56.9087 56.9594 56.67 57.1606 56.5233 57.3477C56.3683 57.5454 56.2566 57.8679 56.2566 58.1184C56.2566 58.4276 56.3596 58.6522 56.6213 58.9148L56.9859 59.2805H67.1388H77.2918L77.6395 58.9166C77.8833 58.6612 77.9871 58.423 77.9871 58.1184C77.9871 57.8797 77.9209 57.5601 77.8399 57.4082C77.7588 57.2564 77.5025 57.0526 77.2701 56.9552C76.9173 56.8074 75.2338 56.7794 67.0822 56.786C61.7113 56.7904 57.1985 56.842 57.0535 56.9007ZM39.0457 69.4296C38.8761 69.4974 38.5473 69.6983 38.3149 69.8761C38.0825 70.0539 37.7587 70.4876 37.5951 70.8397L37.298 71.48L37.2995 76.9228C37.3009 81.9195 37.3196 82.4066 37.5283 82.8661C37.6533 83.1413 37.9831 83.5724 38.2613 83.824C38.6117 84.1408 38.9722 84.3264 39.4346 84.4279C39.9037 84.5308 41.6604 84.5622 45.3415 84.5336L50.5808 84.4927L51.1761 84.1417C51.5035 83.9486 51.9245 83.5586 52.1116 83.2751L52.4519 82.7596L52.4901 77.1823C52.5161 73.3837 52.4844 71.4548 52.3909 71.1337C52.3153 70.8746 52.0741 70.4576 51.8548 70.207C51.6355 69.9565 51.2311 69.649 50.9561 69.5237C50.4958 69.314 50.0146 69.2962 44.9049 69.301C41.5619 69.3041 39.2312 69.3553 39.0457 69.4296ZM50.0194 76.8616V81.9304L44.9361 81.8978L39.8528 81.8651L39.8201 76.9856C39.8021 74.302 39.8143 72.0356 39.8474 71.9494C39.8941 71.8276 41.0285 71.7928 44.9634 71.7928H50.0194V76.8616ZM56.8941 72.4653C56.7302 72.5579 56.5216 72.7682 56.4308 72.9326C56.3399 73.0972 56.2635 73.4103 56.261 73.6287C56.2579 73.909 56.3695 74.1389 56.6405 74.4107L57.0243 74.7957H61.4411H65.858L66.2625 74.4331C66.5943 74.1358 66.6672 73.9781 66.6672 73.5572C66.6672 73.1642 66.5869 72.9634 66.3243 72.6999L65.9813 72.3558L61.5867 72.3264C58.0945 72.3031 57.131 72.3317 56.8941 72.4653ZM56.8941 79.0994C56.7302 79.1905 56.5216 79.3997 56.4308 79.5641C56.3399 79.7286 56.2648 80.0321 56.2639 80.2385C56.2629 80.445 56.3592 80.734 56.4777 80.8808C56.5963 81.0275 56.8159 81.2106 56.9657 81.2874C57.1597 81.3869 60.1083 81.4272 67.1982 81.4272C76.2044 81.4272 77.186 81.4077 77.4486 81.2231C77.6084 81.1109 77.8198 80.8251 77.9186 80.5879C78.0802 80.2002 78.0757 80.1104 77.8743 79.6981C77.7511 79.4459 77.51 79.1695 77.3384 79.084C77.0976 78.9639 74.768 78.929 67.1094 78.931C59.1147 78.9331 57.1345 78.9658 56.8941 79.0994Z" fill="#292929"/>
</svg>
