<svg width="61" height="60" viewBox="0 0 61 60" fill="none" xmlns="http://www.w3.org/2000/svg">
<ellipse cx="30.4705" cy="30" rx="29.8039" ry="30" fill="#83B32B"/>
<path fill-rule="evenodd" clip-rule="evenodd" d="M28.7876 14.717L27.6325 15.4614L26.494 15.3161C25.868 15.2362 25.2498 15.162 25.1204 15.1511L24.8851 15.1314L24.1594 16.3192L23.4337 17.507L22.1526 17.9453C21.448 18.1863 20.8565 18.3986 20.8383 18.417C20.82 18.4355 20.7444 19.055 20.6703 19.7938L20.5355 21.1369L19.5423 22.1485L18.549 23.1601L19.0179 24.4718L19.4867 25.7834L19.0286 27.0588C18.7767 27.7602 18.57 28.3585 18.5692 28.3884C18.5685 28.4181 19.0075 28.872 19.5448 29.3969L20.5217 30.3513L20.6651 31.7515C20.7439 32.5216 20.8134 33.155 20.8195 33.159C20.8255 33.1632 21.4183 33.3698 22.1369 33.6183L23.4432 34.0702L24.1466 35.2261C24.5335 35.8619 24.8718 36.3957 24.8985 36.4123C24.9251 36.4289 25.555 36.3676 26.2982 36.2761L27.6495 36.1098L28.7705 36.8376C29.3871 37.2378 29.9286 37.5653 29.9738 37.5653C30.0191 37.5653 30.5607 37.2377 31.1773 36.8372L32.2984 36.1093L33.6593 36.2747C34.7503 36.4072 35.0344 36.4244 35.0913 36.3612C35.1304 36.3178 35.4627 35.7895 35.8298 35.1871C36.1969 34.5847 36.5023 34.0858 36.5086 34.0783C36.5148 34.0708 37.1042 33.8636 37.8185 33.6178C38.5328 33.372 39.1221 33.1665 39.1282 33.1612C39.1343 33.156 39.2038 32.5213 39.2827 31.7509L39.4261 30.3502L40.403 29.3988C40.9402 28.8755 41.3792 28.4219 41.3785 28.3907C41.3777 28.3596 41.171 27.7602 40.9191 27.0588L40.461 25.7834L40.9298 24.4718L41.3987 23.1601L40.4054 22.1485L39.4122 21.1369L39.2774 19.7938C39.2033 19.055 39.1282 18.436 39.1106 18.4182C39.0929 18.4004 38.502 18.1877 37.7974 17.9455L36.5163 17.5052L35.7878 16.3148L35.0592 15.1243L33.6805 15.2895L32.3019 15.4547L31.198 14.7415C30.5908 14.3492 30.0601 14.0157 30.0185 14.0005C29.9769 13.9853 29.423 14.3077 28.7876 14.717ZM31.314 17.822C31.6168 17.8747 32.0877 17.9863 32.3604 18.0698C32.6332 18.1534 33.1139 18.3484 33.4288 18.5033C33.7437 18.6582 34.2179 18.9325 34.4826 19.1128C34.7474 19.2932 35.2169 19.6878 35.5261 19.9898C35.8353 20.2918 36.2443 20.7579 36.435 21.0256C36.6257 21.2934 36.8967 21.7279 37.0373 21.9913C37.1778 22.2547 37.378 22.7053 37.4822 22.9926C37.5864 23.28 37.7257 23.7545 37.7919 24.0471C37.8591 24.3438 37.929 24.9545 37.9501 25.4283C37.9739 25.962 37.9604 26.4737 37.9139 26.8052C37.8731 27.0954 37.7705 27.6003 37.6858 27.9273C37.6011 28.2543 37.3811 28.8388 37.1968 29.2261C37.0125 29.6135 36.7137 30.1474 36.5327 30.4125C36.3517 30.6776 35.9806 31.1242 35.7078 31.4051C35.4351 31.6859 34.9864 32.0832 34.7107 32.288C34.4351 32.4928 33.9582 32.7915 33.651 32.9516C33.3437 33.1119 32.844 33.3265 32.5404 33.4286C32.2369 33.5307 31.7514 33.6646 31.4616 33.7261C31.0859 33.8059 30.6589 33.838 29.9738 33.838C29.2888 33.838 28.8618 33.8059 28.4861 33.7261C28.1963 33.6646 27.7108 33.5307 27.4073 33.4286C27.1036 33.3265 26.604 33.1119 26.2967 32.9516C25.9895 32.7915 25.5126 32.4928 25.237 32.288C24.9613 32.0832 24.5126 31.6859 24.2399 31.4051C23.9671 31.1242 23.5985 30.6813 23.4207 30.4208C23.2429 30.1603 22.9728 29.6969 22.8203 29.391C22.668 29.085 22.4737 28.6235 22.3887 28.3654C22.3036 28.1072 22.1832 27.6566 22.1212 27.364C22.0366 26.9654 22.0087 26.5653 22.0098 25.7681C22.011 24.9736 22.0403 24.5695 22.1255 24.1722C22.1883 23.8797 22.3233 23.4009 22.4255 23.1083C22.5278 22.8157 22.6953 22.4074 22.7978 22.2008C22.9003 21.9943 23.1376 21.5859 23.3251 21.2934C23.5301 20.9735 23.9288 20.497 24.3249 20.0983C24.6873 19.7336 25.2003 19.2889 25.4651 19.1101C25.7298 18.9312 26.204 18.6582 26.5189 18.5033C26.8337 18.3484 27.3145 18.1531 27.5873 18.0693C27.86 17.9855 28.3063 17.8765 28.5791 17.8271C28.8519 17.7777 29.4549 17.7347 29.9192 17.7317C30.423 17.7283 30.9854 17.7647 31.314 17.822ZM29.075 19.6055C28.8704 19.6374 28.4666 19.7374 28.1775 19.8278C27.8885 19.9181 27.4422 20.0987 27.1857 20.229C26.9293 20.3594 26.5429 20.5975 26.3272 20.758C26.1114 20.9186 25.7594 21.2316 25.5449 21.4534C25.3305 21.6754 25.0239 22.0543 24.8637 22.2954C24.7034 22.5365 24.4741 22.9485 24.3539 23.2109C24.2339 23.4733 24.0658 23.9589 23.9805 24.29C23.8564 24.7712 23.8239 25.0551 23.8186 25.7056C23.8149 26.153 23.8472 26.6881 23.8904 26.8947C23.9335 27.1012 24.0265 27.4532 24.0968 27.677C24.1671 27.9007 24.3202 28.2783 24.437 28.5162C24.5538 28.754 24.7522 29.1061 24.8778 29.2985C25.0035 29.4909 25.3298 29.8762 25.6029 30.1547C25.8761 30.4331 26.2776 30.7817 26.4951 30.9292C26.7127 31.0768 27.1172 31.3046 27.3939 31.4355C27.6708 31.5665 28.1343 31.7389 28.4241 31.8188C28.8832 31.9453 29.0868 31.9634 30.0048 31.9597C30.8829 31.9561 31.1391 31.933 31.5412 31.8209C31.8065 31.7469 32.2561 31.5764 32.5404 31.442C32.8245 31.3075 33.2263 31.0814 33.4332 30.9396C33.6401 30.7977 33.9809 30.5214 34.1904 30.3255C34.4 30.1296 34.6965 29.8053 34.8492 29.605C35.0019 29.4047 35.2506 29.0057 35.402 28.7185C35.5533 28.4312 35.7343 28.0301 35.8041 27.8271C35.8738 27.624 35.9755 27.2608 36.0299 27.0198C36.0952 26.7304 36.1279 26.2949 36.1262 25.7368C36.1239 25.042 36.0958 24.785 35.9678 24.29C35.8821 23.9589 35.7138 23.4733 35.5937 23.2109C35.4736 22.9485 35.2425 22.5338 35.08 22.2893C34.9176 22.0449 34.5964 21.6529 34.3662 21.4183C34.1361 21.1836 33.7679 20.862 33.5479 20.7034C33.3279 20.5449 32.887 20.2917 32.5682 20.1407C32.2493 19.9897 31.7514 19.8058 31.4616 19.732C31.1224 19.6457 30.6697 19.5889 30.1908 19.5727C29.7817 19.5588 29.2796 19.5735 29.075 19.6055ZM21.2931 36.3968C21.1175 36.9535 20.5494 38.7466 20.0307 40.3816L19.0874 43.3543L19.2433 43.3754C19.329 43.387 20.2512 43.3515 21.2926 43.2966C22.334 43.2417 23.2846 43.1836 23.405 43.1675C23.6125 43.1397 23.7176 43.2138 25.4096 44.5812C26.3916 45.3748 27.206 46.0132 27.2193 45.9998C27.2325 45.9864 27.7043 44.5219 28.2677 42.7454C28.831 40.9689 29.2907 39.4779 29.2891 39.4322C29.2874 39.3864 28.8186 39.0511 28.2471 38.6872L27.208 38.0254L25.5783 38.2217L23.9487 38.4181L23.8659 38.289C23.8204 38.218 23.4317 37.5825 23.0021 36.8769L22.221 35.5939L21.9167 35.4894L21.6124 35.3849L21.2931 36.3968ZM38.0188 35.4936C37.7293 35.5929 37.7185 35.6067 36.9454 36.8769C36.5159 37.5825 36.1276 38.2174 36.0825 38.2878L36.0006 38.4158L34.3731 38.2187L32.7456 38.0216L31.7036 38.6852C31.1305 39.0503 30.6602 39.3864 30.6586 39.4322C30.657 39.4779 31.1167 40.9689 31.68 42.7454C32.2434 44.5219 32.7152 45.9864 32.7284 45.9998C32.7417 46.0132 33.5553 45.3754 34.5364 44.5826C36.296 43.1606 36.3237 43.1413 36.5719 43.1692C36.7104 43.1847 37.6912 43.2426 38.7516 43.2979C39.812 43.3532 40.7196 43.3885 40.7686 43.3764C40.8374 43.3594 40.5749 42.4646 39.6146 39.4428C38.9309 37.2915 38.358 35.5003 38.3415 35.4623C38.3204 35.4141 38.2229 35.4236 38.0188 35.4936Z" fill="white"/>
</svg>
