<svg width="60" height="60" viewBox="0 0 60 60" fill="none" xmlns="http://www.w3.org/2000/svg">
<ellipse cx="30.0719" cy="30" rx="29.8039" ry="30" fill="#83B32B"/>
<path fill-rule="evenodd" clip-rule="evenodd" d="M33.9594 15.5844C33.9405 16.0556 33.913 16.1994 33.8172 16.3278C33.7518 16.4153 33.6256 16.5412 33.5367 16.6077C33.3785 16.7259 33.296 16.7292 29.7906 16.7578C26.217 16.7871 26.2051 16.7875 25.8254 16.9241C25.616 16.9995 25.2954 17.1515 25.1131 17.262C24.9308 17.3725 24.6347 17.6099 24.455 17.7896C24.2753 17.9693 24.0379 18.2655 23.9274 18.4478C23.8169 18.6301 23.6655 18.9507 23.5908 19.1602C23.4685 19.5036 23.4532 19.6634 23.435 20.7861L23.415 22.0312H24.8414C25.626 22.0312 26.4845 22.0041 26.7493 21.9709C27.0141 21.9377 27.3979 21.8589 27.6023 21.7957C27.8067 21.7326 28.0792 21.6046 28.208 21.5113C28.3368 21.4181 28.4908 21.2398 28.5503 21.1152C28.6099 20.9906 28.6703 20.7503 28.6847 20.5811L28.7108 20.2734H29.8139H30.917L31.0914 20.5269C31.1873 20.6663 31.4212 20.9242 31.6111 21.1001C31.801 21.276 32.1418 21.5173 32.3684 21.6363C32.5949 21.7554 32.9489 21.8926 33.1551 21.9412C33.3612 21.9898 33.737 22.0299 33.9901 22.0304C34.2432 22.0308 34.6101 21.9898 34.8053 21.9393C35.0006 21.8886 35.3271 21.7659 35.531 21.6665C35.7348 21.5671 36.0366 21.3706 36.2016 21.2297C36.3665 21.0889 36.6011 20.8532 36.7228 20.7059C36.8445 20.5586 37.0243 20.2735 37.1224 20.0724C37.2204 19.8713 37.342 19.5471 37.3926 19.3518C37.4432 19.1565 37.4846 18.7819 37.4846 18.5192C37.4846 18.2566 37.4432 17.8781 37.3927 17.6781C37.3422 17.478 37.217 17.1483 37.1144 16.9452C37.0119 16.7421 36.8235 16.4511 36.6958 16.2986C36.568 16.146 36.3387 15.9166 36.1862 15.7889C36.0337 15.6612 35.7427 15.4727 35.5396 15.3702C35.3365 15.2677 35.0068 15.1424 34.8067 15.0919C34.6068 15.0414 34.3396 15 34.2131 15H33.9829L33.9594 15.5844ZM29.823 22.3424C29.6913 22.5169 29.4519 22.7562 29.2911 22.8744C29.1302 22.9924 28.8241 23.1682 28.6107 23.2649C28.3974 23.3617 28.0043 23.4927 27.7373 23.5562C27.4703 23.6196 26.9374 23.6975 26.5533 23.7294C26.169 23.7612 25.3076 23.7876 24.639 23.7881L23.4233 23.7891V26.3314C23.4233 28.3553 23.4413 28.969 23.5119 29.3408C23.5606 29.5976 23.6623 29.9895 23.7378 30.2115C23.8134 30.4336 23.9617 30.7866 24.0674 30.9961C24.1731 31.2056 24.3637 31.5305 24.491 31.7182C24.6183 31.9059 24.8957 32.2431 25.1073 32.4675C25.319 32.6919 25.6661 33.0063 25.8786 33.1662C26.091 33.3261 26.4626 33.5595 26.7042 33.6849C26.9459 33.8104 27.3322 33.9802 27.5626 34.0625C27.793 34.1447 28.198 34.2531 28.4626 34.3033C28.7271 34.3535 29.2278 34.3945 29.5751 34.3945C29.9224 34.3945 30.4168 34.3547 30.6736 34.3059C30.9304 34.2572 31.3276 34.1538 31.556 34.076C31.7845 33.9983 32.177 33.8272 32.4284 33.6959C32.6797 33.5644 33.0592 33.3261 33.2717 33.1662C33.4842 33.0063 33.8312 32.6919 34.0429 32.4675C34.2545 32.2431 34.5319 31.9059 34.6592 31.7182C34.7865 31.5305 34.9771 31.2056 35.0828 30.9961C35.1885 30.7866 35.3368 30.4336 35.4124 30.2115C35.488 29.9895 35.5896 29.5976 35.6384 29.3408C35.7094 28.9662 35.7269 28.337 35.7269 26.1618V23.4498L35.3821 23.5571C35.1924 23.6162 34.8168 23.6947 34.5472 23.7316C34.26 23.7709 33.8631 23.7817 33.5884 23.7578C33.3307 23.7353 32.922 23.6666 32.6803 23.6051C32.4386 23.5437 32.0013 23.3769 31.7083 23.2344C31.4154 23.0919 31.0331 22.8647 30.8588 22.7296C30.6845 22.5945 30.434 22.3806 30.3021 22.2545L30.0625 22.0252L29.823 22.3424ZM21.4898 36.2723C21.2482 36.3347 20.8395 36.4898 20.5817 36.6169C20.3239 36.7441 19.9397 36.9915 19.7281 37.1667C19.5163 37.3419 19.2159 37.6533 19.0605 37.8588C18.9051 38.0643 18.6898 38.417 18.5822 38.6426C18.4746 38.8682 18.3334 39.2613 18.2684 39.5162C18.159 39.9454 18.1503 40.1654 18.1503 42.4898V45H22.5398H26.9293L26.9628 44.8389C26.9813 44.7503 27.1692 43.6362 27.3804 42.3633C27.5916 41.0903 27.7548 39.9959 27.7431 39.9312C27.7315 39.8665 27.1042 38.9897 26.3493 37.9829L24.9765 36.1523L23.4529 36.1556C22.1432 36.1583 21.8676 36.1747 21.4898 36.2723ZM27.2103 36.2256C27.2347 36.2659 27.6746 36.8592 28.1878 37.5439L29.1209 38.7891H29.5751H30.0293L30.9624 37.5439C31.4756 36.8592 31.9155 36.2659 31.9399 36.2256C31.975 36.1675 31.4869 36.1523 29.5751 36.1523C27.6633 36.1523 27.1752 36.1675 27.2103 36.2256ZM32.801 37.9829C32.046 38.9897 31.4184 39.8665 31.4064 39.9312C31.3943 39.9959 31.5577 41.0903 31.7695 42.3633C31.9812 43.6362 32.1695 44.7503 32.1877 44.8389L32.2209 45H36.6104H40.9999V42.4898C40.9999 40.1762 40.9908 39.9434 40.8831 39.5162C40.8188 39.2613 40.6623 38.8418 40.5353 38.584C40.4082 38.3262 40.1609 37.942 39.9857 37.7303C39.8105 37.5185 39.4991 37.2181 39.2936 37.0627C39.0881 36.9072 38.7355 36.6919 38.5099 36.5843C38.2843 36.4767 37.8913 36.3354 37.6364 36.2705C37.2312 36.1672 36.9846 36.1523 35.6733 36.1523H34.1737L32.801 37.9829ZM29.0851 42.6123C28.8972 43.7483 28.7296 44.7503 28.7126 44.8389L28.6816 45H29.5751H30.4686L30.4376 44.8389C30.4206 44.7503 30.253 43.7483 30.0651 42.6123L29.7236 40.5469H29.5751H29.4266L29.0851 42.6123Z" fill="white"/>
</svg>
