<svg width="60" height="60" viewBox="0 0 60 60" fill="none" xmlns="http://www.w3.org/2000/svg">
<ellipse cx="29.8039" cy="30" rx="29.8039" ry="30" fill="#83B32B"/>
<path fill-rule="evenodd" clip-rule="evenodd" d="M24.592 17.9619C21.7748 19.0383 19.1127 20.0544 18.6761 20.2202L17.8824 20.5215V26.1139C17.8824 29.5736 17.9062 31.938 17.9449 32.3139C17.9793 32.6481 18.075 33.2515 18.1574 33.6549C18.2399 34.0582 18.4319 34.7553 18.5841 35.2041C18.7363 35.6528 19.0422 36.3788 19.2638 36.8175C19.4855 37.2562 19.854 37.8923 20.0825 38.2312C20.3111 38.57 20.6711 39.0578 20.8826 39.3151C21.0941 39.5725 21.5166 40.0276 21.8215 40.3266C22.1264 40.6256 22.5786 41.028 22.8264 41.2209C23.0742 41.4137 24.7447 42.5776 26.5388 43.8074C28.5595 45.1925 29.8282 46.0266 29.8731 45.9994C29.913 45.9752 31.3493 44.9931 33.0649 43.8169C34.7804 42.6407 36.4131 41.5034 36.6932 41.2896C36.9731 41.0759 37.4583 40.6496 37.7715 40.3424C38.0846 40.0352 38.5137 39.5731 38.7252 39.3155C38.9367 39.0579 39.2968 38.57 39.5253 38.2312C39.7539 37.8923 40.1223 37.2562 40.344 36.8175C40.5657 36.3788 40.8716 35.6528 41.0237 35.2041C41.1759 34.7553 41.3679 34.0582 41.4504 33.6549C41.5329 33.2515 41.6285 32.6481 41.6629 32.3139C41.7016 31.9381 41.7255 29.5741 41.7255 26.1158C41.7255 21.6984 41.7098 20.519 41.6506 20.4954C41.6095 20.4791 38.9369 19.4598 35.7117 18.2304C32.4866 17.001 29.8177 15.9973 29.7809 16C29.7441 16.0028 27.4091 16.8856 24.592 17.9619ZM33.8776 21.7044L37.9214 23.246L37.938 27.5264C37.9519 31.0828 37.9396 31.901 37.8657 32.3641C37.8168 32.6707 37.7066 33.1591 37.6209 33.4495C37.5352 33.7399 37.3719 34.202 37.2581 34.4763C37.1443 34.7505 36.9273 35.1862 36.7759 35.4443C36.6246 35.7025 36.3132 36.1568 36.0841 36.454C35.855 36.7512 35.4142 37.2291 35.1046 37.5161C34.7058 37.8857 33.8517 38.5113 32.1749 39.6621L29.8079 41.2864L27.6942 39.8371C26.5317 39.04 25.4337 38.282 25.2543 38.1526C25.075 38.0232 24.7142 37.7173 24.4526 37.4728C24.191 37.2284 23.8088 36.8172 23.6032 36.5591C23.3977 36.3009 23.1138 35.9049 22.9724 35.679C22.8311 35.4531 22.6256 35.0792 22.516 34.848C22.4064 34.6169 22.2507 34.2473 22.1702 34.0267C22.0896 33.8061 21.9699 33.4143 21.9041 33.1562C21.8383 32.898 21.7545 32.4756 21.7179 32.2174C21.6728 31.899 21.6571 30.3815 21.669 27.4985L21.6865 23.2489L25.7302 21.7067C27.9543 20.8585 29.7874 20.1641 29.8039 20.1636C29.8204 20.1631 31.6536 20.8564 33.8776 21.7044ZM27.4076 22.9221C26.1391 23.4063 24.7156 23.9497 24.2443 24.1297L23.3875 24.4571L23.41 28.2492C23.4315 31.8581 23.4386 32.0655 23.5579 32.5401C23.6269 32.8144 23.7563 33.2368 23.8455 33.4789C23.9347 33.7209 24.0752 34.0509 24.1575 34.2122C24.2398 34.3736 24.4554 34.73 24.6366 35.0043C24.8382 35.3095 25.2129 35.7424 25.6027 36.1203C26.1235 36.6252 26.5645 36.9595 28.024 37.9559L29.8086 39.1742L31.5885 37.9569C33.0438 36.9616 33.4845 36.6269 34.0052 36.1213C34.3934 35.7443 34.7704 35.3084 34.9713 35.0043C35.1525 34.73 35.368 34.3736 35.4504 34.2122C35.5327 34.0509 35.6731 33.7209 35.7623 33.4789C35.8515 33.2368 35.981 32.8144 36.0499 32.5401C36.1692 32.0655 36.1764 31.8581 36.1978 28.25L36.2204 24.4586L35.8428 24.3112C35.6351 24.2301 34.2091 23.6855 32.6738 23.1009C31.1386 22.5164 29.8446 22.0389 29.7983 22.0399C29.752 22.0409 28.6762 22.4379 27.4076 22.9221ZM33.7283 28.1403L34.3256 28.7274L31.6307 31.3671L28.9359 34.0068L27.0934 32.2031L25.251 30.3994L25.8799 29.7834L26.5088 29.1675L27.7372 30.3694L28.9656 31.5714L31.0172 29.5623C32.1455 28.4573 33.0827 27.5531 33.0998 27.5531C33.117 27.5531 33.3998 27.8173 33.7283 28.1403Z" fill="white"/>
</svg>
