<svg width="60" height="60" viewBox="0 0 60 60" fill="none" xmlns="http://www.w3.org/2000/svg">
<path fill-rule="evenodd" clip-rule="evenodd" d="M27.1247 0.0263693C26.8664 0.0541952 25.9996 0.181701 25.1984 0.309559C24.3974 0.437417 23.2336 0.670943 22.6124 0.828388C21.9912 0.985833 20.8498 1.3309 20.0761 1.59518C19.3024 1.85959 17.8238 2.48949 16.7904 2.99517C15.757 3.50084 14.2454 4.36016 13.4312 4.9047C12.617 5.44936 11.5337 6.23247 11.0238 6.64493C10.5139 7.05739 9.48642 8.00476 8.7407 8.7503C7.99499 9.49585 7.0474 10.5231 6.63485 11.0328C6.2223 11.5426 5.43901 12.6257 4.89423 13.4397C4.34957 14.2537 3.49006 15.765 2.98426 16.7982C2.47847 17.8314 1.84726 19.3107 1.5815 20.0856C1.31563 20.8605 0.94641 22.1128 0.76098 22.8686C0.57555 23.6243 0.328466 24.8395 0.211853 25.569C0.0462695 26.6052 0 27.5758 0 30.0067C0 32.4375 0.0462695 33.4081 0.211853 34.4444C0.328466 35.1738 0.57555 36.389 0.76098 37.1448C0.94641 37.9005 1.31516 39.1528 1.58044 39.9277C1.84573 40.7026 2.48141 42.1872 2.99307 43.2269C3.50474 44.2667 4.36471 45.7779 4.90409 46.5854C5.44347 47.3929 6.2223 48.4707 6.63485 48.9805C7.0474 49.4903 7.99499 50.5175 8.7407 51.263C9.48642 52.0086 10.5139 52.956 11.0238 53.3684C11.5337 53.7809 12.617 54.5642 13.4312 55.1091C14.2454 55.654 15.757 56.5107 16.7904 57.0129C17.8238 57.5152 19.2933 58.1426 20.0559 58.4072C20.8187 58.672 21.9599 59.0197 22.5923 59.1799C23.2246 59.3402 24.4238 59.5894 25.2571 59.734C26.5681 59.9612 27.2 59.9971 29.9432 59.9999C32.4489 60.0025 33.3921 59.9586 34.4406 59.7907C35.1702 59.6737 36.3857 59.4264 37.1416 59.241C37.8975 59.0556 39.1501 58.6869 39.9252 58.4217C40.7002 58.1565 42.1852 57.5209 43.2251 57.0094C44.2651 56.4978 45.7767 55.638 46.5843 55.0988C47.392 54.5595 48.4701 53.7809 48.98 53.3684C49.4899 52.956 50.5173 52.0086 51.2631 51.263C52.0088 50.5175 52.9564 49.4903 53.3689 48.9805C53.7815 48.4707 54.5603 47.3929 55.0997 46.5854C55.639 45.7779 56.4974 44.2667 57.007 43.2269C57.5167 42.1872 58.149 40.7128 58.412 39.9504C58.6751 39.1878 59.0214 38.0468 59.1817 37.4146C59.342 36.7824 59.5917 35.5835 59.7366 34.7503C59.9664 33.4286 60 32.8237 60 30.0067C60 27.1897 59.9664 26.5848 59.7366 25.263C59.5917 24.4299 59.3442 23.2399 59.1868 22.6189C59.0293 21.9978 58.6841 20.8567 58.4198 20.0832C58.1553 19.3096 57.5252 17.8314 57.0194 16.7982C56.5135 15.765 55.6201 14.2064 55.034 13.3346C54.448 12.4629 53.5239 11.2213 52.9805 10.5755C52.4372 9.92979 51.5234 8.95189 50.9499 8.4023C50.3764 7.85283 49.4899 7.06385 48.98 6.64904C48.4701 6.23435 47.392 5.45382 46.5843 4.91456C45.7767 4.3753 44.2651 3.51529 43.2251 3.00338C42.1852 2.49148 40.6474 1.8401 39.8077 1.55585C38.9681 1.27161 37.6998 0.901181 36.9893 0.7327C36.2788 0.564101 35.169 0.340672 34.5231 0.236179C33.7351 0.108673 32.4021 0.0345879 30.4716 0.0109888C28.8892 -0.00838363 27.3831 -0.00145652 27.1247 0.0263693ZM44.3798 18.5029C44.6652 18.7836 44.7321 18.9582 44.7705 19.5223C44.8082 20.0767 44.3469 22.4144 42.2847 32.12C40.8919 38.6744 39.6627 44.239 39.5529 44.4859C39.4431 44.7327 39.2238 45.0365 39.0656 45.161C38.8863 45.302 38.5957 45.3866 38.2946 45.3858C38.0031 45.385 37.6174 45.2736 37.3228 45.1051C37.0541 44.9515 35.2107 43.6269 33.2265 42.1615L29.6187 39.4973L29.0763 40.009C28.778 40.2904 27.8469 41.1846 27.0073 41.9962C25.9575 43.0109 25.3406 43.5179 25.0324 43.6194C24.7859 43.7005 24.5638 43.7465 24.5388 43.7216C24.5139 43.6968 24.6135 41.9727 24.7602 39.8904C24.9619 37.0244 25.0676 36.0661 25.1949 35.9464C25.2874 35.8595 28.4282 33.0261 32.1744 29.6499C35.9206 26.2737 39.0282 23.4401 39.0801 23.3532C39.132 23.2662 39.1421 23.1427 39.1025 23.0786C39.0629 23.0145 38.8859 22.9622 38.709 22.9622C38.5217 22.9622 37.9236 23.249 37.2773 23.6485C36.6668 24.026 32.7062 26.5147 28.4759 29.1788L20.7846 34.0229L17.0847 32.8777C15.0498 32.2479 13.2045 31.648 12.9841 31.5447C12.7637 31.4414 12.4812 31.2187 12.3564 31.0497C12.1449 30.7637 12.142 30.7182 12.3139 30.386C12.4154 30.1898 12.6714 29.9225 12.8829 29.7918C13.0944 29.6611 19.6617 27.0866 27.477 24.0706C35.2923 21.0545 42.0302 18.4612 42.45 18.3075C42.9712 18.1168 43.3437 18.0498 43.6244 18.0962C43.8504 18.1336 44.1904 18.3166 44.3798 18.5029Z" fill="#039BE5"/>
</svg>
