<svg width="60" height="60" viewBox="0 0 60 60" fill="none" xmlns="http://www.w3.org/2000/svg">
<path fill-rule="evenodd" clip-rule="evenodd" d="M26.4451 0.166847C25.7468 0.251356 24.613 0.435495 23.9256 0.575914C23.2382 0.71645 22.085 1.0103 21.363 1.22878C20.6411 1.44738 19.5073 1.84156 18.8435 2.10482C18.1798 2.36796 16.9775 2.92588 16.1719 3.34444C15.3662 3.76312 14.1263 4.49194 13.4164 4.96407C12.7066 5.43619 11.6783 6.18119 11.1313 6.61956C10.5843 7.05804 9.52711 8.02644 8.78203 8.77167C8.03695 9.5169 7.06875 10.5743 6.63035 11.1214C6.19207 11.6685 5.44723 12.6971 4.9752 13.407C4.50316 14.117 3.77449 15.3572 3.3559 16.163C2.93742 16.9688 2.37961 18.1713 2.11652 18.8352C1.85332 19.4991 1.45945 20.6331 1.24125 21.3552C1.02305 22.0774 0.733242 23.2073 0.597305 23.8661C0.461367 24.525 0.271406 25.7379 0.175078 26.5613C0.07875 27.3848 0 28.9294 0 29.9939C0 31.0584 0.07875 32.6031 0.175078 33.4266C0.271406 34.25 0.461367 35.4629 0.597305 36.1217C0.733242 36.7806 1.02305 37.9105 1.24125 38.6326C1.45945 39.3548 1.85332 40.4888 2.11652 41.1527C2.37961 41.8166 2.93742 43.019 3.3559 43.8249C3.77449 44.6307 4.50316 45.8709 4.9752 46.5808C5.44723 47.2908 6.19207 48.3193 6.63035 48.8665C7.06875 49.4136 8.03695 50.471 8.78203 51.2162C9.52711 51.9614 10.5843 52.9298 11.1313 53.3683C11.6783 53.8067 12.7066 54.5517 13.4164 55.0238C14.1263 55.4959 15.3662 56.2247 16.1719 56.6434C16.9775 57.062 18.1798 57.6199 18.8435 57.883C19.5073 58.1463 20.6411 58.5403 21.363 58.7585C22.085 58.9767 23.2147 59.2666 23.8734 59.4026C24.5321 59.5385 25.7448 59.7285 26.568 59.8249C27.3914 59.9212 28.9357 60 30 60C31.0643 60 32.6086 59.9212 33.432 59.8249C34.2552 59.7285 35.4678 59.5385 36.1266 59.4026C36.7853 59.2666 37.915 58.9767 38.637 58.7585C39.3589 58.5403 40.4927 58.1463 41.1565 57.883C41.8202 57.6199 43.0225 57.062 43.8281 56.6434C44.6338 56.2247 45.8737 55.4959 46.5836 55.0238C47.2934 54.5517 48.3217 53.8067 48.8687 53.3683C49.4157 52.9298 50.4729 51.9614 51.218 51.2162C51.963 50.471 52.9312 49.4136 53.3696 48.8665C53.8079 48.3193 54.5528 47.2908 55.0248 46.5808C55.4968 45.8709 56.2255 44.6307 56.6441 43.8249C57.0626 43.019 57.6204 41.8166 57.8835 41.1527C58.1467 40.4888 58.5405 39.3548 58.7587 38.6326C58.977 37.9105 59.2668 36.7806 59.4027 36.1217C59.5386 35.4629 59.7286 34.25 59.8249 33.4266C59.9213 32.6031 60 31.0584 60 29.9939C60 28.9294 59.9213 27.3848 59.8249 26.5613C59.7286 25.7379 59.5386 24.525 59.4027 23.8661C59.2668 23.2073 58.977 22.0774 58.7587 21.3552C58.5405 20.6331 58.1467 19.4991 57.8835 18.8352C57.6204 18.1713 57.0626 16.9688 56.6441 16.163C56.2255 15.3572 55.4968 14.117 55.0248 13.407C54.5528 12.6971 53.8079 11.6685 53.3696 11.1214C52.9312 10.5743 51.963 9.5169 51.218 8.77167C50.4729 8.02644 49.4157 7.05804 48.8687 6.61956C48.3217 6.18119 47.2934 5.43619 46.5836 4.96407C45.8737 4.49194 44.6338 3.76312 43.8281 3.34444C43.0225 2.92588 41.8202 2.36796 41.1565 2.10482C40.4927 1.84156 39.3589 1.44761 38.637 1.22937C37.915 1.01112 36.7853 0.721256 36.1266 0.585291C35.4678 0.449326 34.2552 0.259326 33.432 0.162979C32.5707 0.0622943 31.039 -0.00674309 29.8249 0.000524004C28.6644 0.00755668 27.1434 0.0824546 26.4451 0.166847ZM30.7102 20.97C31.0537 21.0351 31.521 21.1802 31.7482 21.2923C31.9755 21.4045 32.2684 21.6807 32.3991 21.9064C32.6276 22.3008 32.6352 22.4734 32.598 26.3809C32.5615 30.2277 32.5718 30.4733 32.7921 30.9714C32.9201 31.2609 33.1384 31.5583 33.2771 31.6327C33.4159 31.707 33.6818 31.7342 33.8681 31.6933C34.0772 31.6473 34.4852 31.3212 34.9341 30.8413C35.3341 30.4136 36.0438 29.481 36.5113 28.7688C36.9787 28.0565 37.6532 26.9201 38.01 26.2432C38.3668 25.5663 38.9027 24.4323 39.2007 23.7231C39.4989 23.014 39.8653 22.3225 40.0152 22.1864C40.2757 21.9498 40.4501 21.9352 43.9679 21.8531C46.5306 21.7935 47.7936 21.8066 48.1269 21.8964C48.3901 21.9672 48.6754 22.1095 48.7608 22.2124C48.8462 22.3153 48.9082 22.595 48.8987 22.8339C48.8892 23.0727 48.7784 23.5288 48.6524 23.8473C48.5264 24.1658 48.1737 24.8484 47.8684 25.3641C47.5631 25.8798 47.0718 26.6446 46.7764 27.0637C46.4811 27.4827 45.5138 28.7876 44.6268 29.9633C43.7396 31.1392 42.907 32.3106 42.7765 32.5666C42.6459 32.8226 42.5391 33.2223 42.5391 33.4547C42.5391 33.6871 42.5989 33.9925 42.6722 34.1334C42.7454 34.2741 43.8679 35.4706 45.1666 36.7922C46.6496 38.3013 47.754 39.5347 48.1357 40.1084C48.47 40.6108 48.804 41.2236 48.8779 41.4701C48.9843 41.8252 48.9789 41.9872 48.8517 42.2502C48.7636 42.4329 48.5072 42.6897 48.2821 42.8208C47.9085 43.0384 47.5864 43.067 44.6027 43.1473C41.811 43.2225 41.2412 43.2087 40.7071 43.0534C40.3629 42.9534 39.7646 42.66 39.3777 42.4014C38.9906 42.143 38.2131 41.4213 37.6497 40.7976C37.0862 40.1741 36.3484 39.3867 36.0098 39.0479C35.6714 38.7092 35.2222 38.3269 35.0116 38.1986C34.8012 38.0703 34.4831 37.965 34.3049 37.9648C34.1012 37.9644 33.8288 38.1057 33.5711 38.3452C33.3206 38.578 33.0737 38.9781 32.9365 39.3738C32.813 39.7298 32.6747 40.4947 32.6293 41.0733C32.5839 41.6519 32.4712 42.2745 32.3789 42.4569C32.2843 42.6436 32.0228 42.8671 31.7801 42.9685C31.4252 43.1168 30.9664 43.1379 29.1805 43.0878C27.5297 43.0415 26.8018 42.9709 26.1328 42.7918C25.6494 42.6625 24.9104 42.4271 24.4907 42.2688C24.0709 42.1104 23.4117 41.8186 23.0258 41.6201C22.6399 41.4217 22.0078 41.0466 21.6211 40.7866C21.2344 40.5266 20.5211 39.9567 20.036 39.52C19.5509 39.0834 18.8126 38.3394 18.3954 37.8667C17.9781 37.3939 17.1611 36.339 16.5798 35.5224C15.9984 34.7058 15.1473 33.4312 14.6885 32.6898C14.2297 31.9484 13.4489 30.6034 12.9534 29.7009C12.4581 28.7984 11.617 27.1633 11.0845 26.0674C10.552 24.9714 9.99516 23.7775 9.8468 23.4142C9.68086 23.0073 9.60492 22.6435 9.6491 22.4672C9.68859 22.3098 9.86719 22.107 10.046 22.0165C10.2955 21.8904 11.1074 21.8442 13.5352 21.818C16.6431 21.7843 16.7074 21.7884 17.1611 22.0502C17.5787 22.291 17.7033 22.4908 18.461 24.1334C18.9219 25.1326 19.6045 26.4776 19.9778 27.1223C20.351 27.7669 20.9871 28.7954 21.3912 29.4079C21.7952 30.0203 22.3793 30.7733 22.6891 31.0812C22.9989 31.3891 23.4127 31.6838 23.6086 31.736C23.8136 31.7908 24.0744 31.7827 24.2229 31.7168C24.3648 31.6539 24.5632 31.429 24.6637 31.217C24.7643 31.0051 24.8941 30.5773 24.9523 30.2663C25.0104 29.9554 25.0927 29.1735 25.1351 28.5288C25.1775 27.8841 25.1566 26.6545 25.0888 25.7962C25.0068 24.7581 24.8921 24.0703 24.7466 23.7412C24.6264 23.4691 24.3572 23.1029 24.1485 22.9273C23.9399 22.7517 23.5363 22.5494 23.2518 22.4776C22.9672 22.406 22.7344 22.2844 22.7344 22.2074C22.7344 22.1305 22.8795 21.9317 23.0566 21.7658C23.2338 21.6 23.5478 21.379 23.7543 21.2749C23.9607 21.1707 24.409 21.039 24.7504 20.9821C25.0917 20.9254 26.4318 20.8727 27.7282 20.8652C29.0245 20.8577 30.3664 20.9048 30.7102 20.97Z" fill="#4D76A1"/>
</svg>
