<svg width="61" height="60" viewBox="0 0 61 60" fill="none" xmlns="http://www.w3.org/2000/svg">
<path fill-rule="evenodd" clip-rule="evenodd" d="M26.4897 0.162862C25.8128 0.245027 24.6788 0.4294 23.9697 0.572515C23.2606 0.715512 22.0738 1.01592 21.3324 1.23992C20.5911 1.46391 19.4043 1.88387 18.6952 2.17327C17.9861 2.46255 16.8111 3.01062 16.0843 3.39121C15.3574 3.77179 14.2344 4.43158 13.5885 4.8574C12.9427 5.28323 11.876 6.05894 11.2179 6.58111C10.5599 7.10341 9.46387 8.08845 8.78217 8.77003C8.10058 9.45173 7.11554 10.5478 6.59325 11.2058C6.07107 11.8638 5.29924 12.9248 4.87798 13.5635C4.45684 14.2022 3.82167 15.274 3.4664 15.9451C3.11125 16.6163 2.58287 17.7328 2.2923 18.4264C2.00173 19.12 1.57837 20.2734 1.35156 20.9897C1.12476 21.7059 0.80571 22.9243 0.642435 23.6972C0.479277 24.4701 0.267945 25.7676 0.172887 26.5805C0.0778282 27.3934 0 28.9294 0 29.9939C0 31.0584 0.0778282 32.5945 0.172887 33.4074C0.267945 34.2202 0.479277 35.5177 0.642435 36.2906C0.80571 37.0635 1.12476 38.2819 1.35156 38.9982C1.57837 39.7145 2.00173 40.8679 2.2923 41.5615C2.58287 42.255 3.11125 43.3716 3.4664 44.0428C3.82167 44.7139 4.45684 45.7857 4.87798 46.4244C5.29924 47.063 6.07213 48.124 6.59559 48.7821C7.11917 49.4401 8.10422 50.5351 8.78451 51.2155C9.46492 51.8958 10.5599 52.8808 11.2179 53.4044C11.876 53.9279 12.937 54.7008 13.5756 55.122C14.2143 55.5432 15.2861 56.1783 15.9573 56.5336C16.6284 56.8887 17.745 57.4171 18.4385 57.7077C19.1321 57.9983 20.2855 58.4216 21.0018 58.6484C21.7181 58.8752 22.9365 59.1943 23.7094 59.3576C24.4823 59.5207 25.7798 59.7321 26.5926 59.8271C27.4055 59.9222 28.9416 60 30.0061 60C31.0706 60 32.6152 59.9212 33.4387 59.8249C34.2621 59.7285 35.475 59.5385 36.1339 59.4026C36.7927 59.2666 37.9383 58.9721 38.6797 58.7481C39.4211 58.524 40.6078 58.104 41.3169 57.8146C42.0261 57.5253 43.201 56.9772 43.9278 56.5967C44.6548 56.2161 45.7736 55.5591 46.4141 55.1368C47.0547 54.7144 47.9895 54.044 48.4916 53.647C48.9937 53.25 49.8213 52.5523 50.3308 52.0966C50.8402 51.6407 51.6979 50.7743 52.2366 50.1713C52.7753 49.5681 53.5885 48.5792 54.0437 47.9734C54.499 47.3678 55.2075 46.3232 55.6184 45.6523C56.0291 44.9813 56.5757 44.0137 56.833 43.5019C57.0903 42.9903 57.5155 42.0557 57.778 41.4248C58.0405 40.7941 58.4393 39.6971 58.6641 38.987C58.889 38.2769 59.2064 37.0635 59.3697 36.2906C59.5329 35.5177 59.7442 34.2202 59.8392 33.4074C59.9343 32.5945 60.0121 31.0584 60.0121 29.9939C60.0121 28.9294 59.9343 27.3934 59.8392 26.5805C59.7442 25.7676 59.5329 24.4701 59.3697 23.6972C59.2064 22.9243 58.8874 21.7059 58.6606 20.9897C58.4338 20.2734 58.0104 19.12 57.7198 18.4264C57.4293 17.7328 56.8987 16.6102 56.5408 15.9316C56.1828 15.2531 55.5452 14.1783 55.1237 13.5432C54.7024 12.9082 53.9327 11.8533 53.4135 11.199C52.8941 10.5447 51.9116 9.45173 51.23 8.77003C50.5483 8.08845 49.4522 7.10341 48.7942 6.58111C48.1362 6.05894 47.0694 5.28323 46.4236 4.8574C45.7778 4.43158 44.6548 3.77179 43.9278 3.39121C43.201 3.01062 42.0261 2.46255 41.3169 2.17327C40.6078 1.88387 39.4211 1.46391 38.6797 1.2398C37.9383 1.01581 36.7927 0.721256 36.1339 0.585291C35.475 0.449326 34.2621 0.259326 33.4387 0.162979C32.5773 0.0622943 31.0453 -0.00674309 29.831 0.000524004C28.6702 0.00755668 27.1666 0.0805793 26.4897 0.162862ZM38.7969 17.1071C40.1185 17.1736 41.8617 17.303 42.6709 17.3948C43.4798 17.4864 44.4609 17.6607 44.8509 17.7822C45.2408 17.9035 45.8018 18.1693 46.0975 18.3728C46.3932 18.5763 46.8166 18.9667 47.0383 19.2404C47.26 19.5141 47.5228 19.8985 47.6223 20.0947C47.7218 20.2911 47.8844 20.7658 47.9836 21.1496C48.0827 21.5336 48.2437 22.458 48.3411 23.2038C48.4386 23.9497 48.5768 25.774 48.6483 27.2579C48.7425 29.2156 48.7432 30.6724 48.6507 32.5677C48.5806 34.0042 48.4678 35.6874 48.3998 36.3082C48.3318 36.929 48.1968 37.8324 48.0997 38.3159C48.0027 38.7994 47.7987 39.4702 47.6465 39.8066C47.4943 40.143 47.121 40.6841 46.8171 41.0091C46.4945 41.3539 45.9665 41.7451 45.5489 41.9485C45.1202 42.1573 44.4103 42.3665 43.7784 42.4701C43.1982 42.5653 41.9587 42.6974 41.0239 42.7635C40.0892 42.8297 37.4255 42.9418 35.1048 43.0125C32.784 43.0831 29.2764 43.1081 27.3102 43.0679C25.344 43.0277 22.6276 42.942 21.2738 42.8774C19.92 42.8129 18.1519 42.6852 17.3446 42.5936C16.5372 42.502 15.5351 42.3194 15.1175 42.1878C14.7 42.0561 14.1078 41.7635 13.8014 41.5375C13.4951 41.3114 13.0797 40.9029 12.8783 40.6296C12.677 40.3563 12.4175 39.9217 12.3018 39.6639C12.186 39.406 12.0113 38.7994 11.9136 38.3159C11.8158 37.8324 11.6803 36.929 11.6123 36.3082C11.5444 35.6874 11.4318 34.0128 11.3623 32.5868C11.2718 30.7314 11.2718 29.2564 11.3623 27.4011C11.4318 25.9751 11.5444 24.3005 11.6123 23.6796C11.6803 23.0589 11.8144 22.1554 11.9104 21.6719C12.0064 21.1884 12.2165 20.519 12.3773 20.1843C12.538 19.8495 12.9078 19.3105 13.1992 18.9864C13.527 18.6219 14.0053 18.2626 14.4539 18.0444C14.863 17.8452 15.613 17.6173 16.1751 17.5211C16.7231 17.4274 18.0681 17.2892 19.164 17.2139C20.26 17.1386 22.5016 17.034 24.1455 16.9814C25.7894 16.9288 29.2178 16.9084 31.7642 16.936C34.3106 16.9637 37.4753 17.0408 38.7969 17.1071ZM26.2553 29.9939C26.2553 33.0959 26.2949 35.613 26.3432 35.5876C26.3915 35.562 28.5805 34.3072 31.2075 32.7989C33.8345 31.2906 35.9838 30.0284 35.9838 29.9939C35.9838 29.9595 33.8345 28.6972 31.2075 27.189C28.5805 25.6807 26.3915 24.4258 26.3432 24.4003C26.2949 24.3748 26.2553 26.8919 26.2553 29.9939Z" fill="#FF0000"/>
</svg>
