<svg width="120" height="120" viewBox="0 0 120 120" fill="none" xmlns="http://www.w3.org/2000/svg">
<circle cx="60" cy="60" r="60" fill="#F4F4F4"/>
<path fill-rule="evenodd" clip-rule="evenodd" d="M58.2979 28.1418C57.8485 28.2454 57.1132 28.4831 56.6638 28.6698C56.2145 28.8564 50.6077 31.4153 44.2043 34.3559C37.8009 37.2967 32.2617 39.8449 31.8951 40.0187C31.5286 40.1923 31.0152 40.5494 30.7545 40.8119C30.4937 41.0743 30.1578 41.5678 30.0082 41.9081C29.8334 42.306 29.7363 42.8245 29.7366 43.3596C29.7369 43.8174 29.8305 44.4166 29.9446 44.691C30.0589 44.9652 30.3838 45.4477 30.6669 45.7631C30.9499 46.0785 31.4232 46.4606 31.7187 46.6124C32.0143 46.7641 32.5703 46.9209 32.9543 46.9608C33.3383 47.0007 33.8819 46.9695 34.1624 46.8916L34.6723 46.7498V47.8416C34.6723 48.8179 34.7076 48.9688 35.0066 49.2696C35.3093 49.5745 35.4506 49.6061 36.5045 49.6061C37.3433 49.6061 37.6688 49.654 37.6705 49.7775C37.6719 49.8718 37.4551 55.0682 37.1889 61.3253C36.9226 67.5823 36.6727 72.9639 36.6333 73.2843C36.5686 73.8133 36.5271 73.8668 36.1821 73.8668C35.973 73.8668 35.5971 74.0058 35.3467 74.1756C35.0962 74.3456 34.766 74.7001 34.6128 74.9637C34.3911 75.3454 34.3242 75.7429 34.2841 76.9165L34.2337 78.39H33.2352C32.3577 78.39 32.2111 78.4268 32.0248 78.6946C31.8578 78.9345 31.8128 79.4003 31.8128 80.8877V82.7761H30.8182C29.9557 82.7761 29.7412 82.8286 29.2037 83.1718C28.7917 83.4347 28.486 83.7709 28.2919 84.1744C28.0225 84.7349 28 84.9983 28 87.6067V90.4319L28.3588 90.7159L28.7176 91H60H91.2824L91.6412 90.7159L92 90.4319V87.6067C92 84.9983 91.9775 84.7349 91.708 84.1744C91.514 83.7709 91.2083 83.4347 90.7963 83.1718C90.2588 82.8286 90.0443 82.7761 89.1818 82.7761H88.1872V80.8571C88.1872 79.1209 88.1614 78.9122 87.9149 78.6641C87.6952 78.443 87.461 78.39 86.7045 78.39H85.7663L85.7159 76.9165C85.6758 75.7429 85.6089 75.3454 85.3872 74.9637C85.234 74.7001 84.9038 74.3456 84.6533 74.1756C84.4029 74.0058 84.026 73.8668 83.8158 73.8668C83.489 73.8668 83.4241 73.8024 83.3678 73.4213C83.3315 73.1764 83.0815 67.7639 82.8122 61.3938C82.5428 55.0237 82.3246 49.7654 82.3271 49.7089C82.3297 49.6525 82.8555 49.6061 83.4955 49.6061C84.5494 49.6061 84.6907 49.5745 84.9934 49.2696C85.2924 48.9688 85.3277 48.818 85.3277 47.8401V46.747L85.7693 46.8744C86.0122 46.9445 86.4388 47.0019 86.7174 47.0019C86.9959 47.0019 87.5606 46.8751 87.9721 46.7201C88.4967 46.5226 88.8976 46.2398 89.3132 45.7746C89.6392 45.4096 89.9788 44.8661 90.0679 44.5671C90.1569 44.2678 90.2284 43.6602 90.2268 43.2167C90.225 42.7286 90.1237 42.1883 89.9702 41.8481C89.8307 41.5389 89.5048 41.0727 89.246 40.8121C88.9871 40.5516 88.4131 40.1656 87.9706 39.9542C87.528 39.743 81.743 37.0849 75.1149 34.0475C68.4868 31.01 62.7268 28.4226 62.3149 28.2978C61.903 28.1728 61.0145 28.0442 60.3404 28.0118C59.5777 27.9754 58.8063 28.0243 58.2979 28.1418ZM61.649 30.2031C62.0632 30.3118 66.9016 32.4637 72.401 34.9853C77.9005 37.5071 83.5937 40.1185 85.0525 40.7884C87.2662 41.8052 87.7561 42.083 88.0142 42.4686C88.1842 42.7226 88.3234 43.1095 88.3234 43.3283C88.3234 43.547 88.2319 43.9042 88.12 44.122C88.008 44.3398 87.7799 44.6143 87.613 44.7319C87.4462 44.8497 87.0555 44.9459 86.7451 44.9459C86.2909 44.9459 83.7488 43.8276 73.7371 39.2234L61.2936 33.5009H60H58.7064L46.2638 39.2234C36.2421 43.8325 33.7113 44.9459 33.2558 44.9459C32.9449 44.9459 32.5538 44.8497 32.387 44.7319C32.2201 44.6143 31.992 44.3398 31.88 44.122C31.7681 43.9042 31.6766 43.547 31.6766 43.3283C31.6766 43.1095 31.8154 42.7231 31.985 42.4698C32.2624 42.0555 33.5679 41.4246 44.9552 36.2017C51.9193 33.0076 57.9234 30.3108 58.2979 30.209C58.6723 30.1072 59.4101 30.0197 59.9374 30.0148C60.4646 30.0099 61.2348 30.0946 61.649 30.2031ZM66.9447 38.3021C70.3523 39.8687 75.4383 42.2053 78.2468 43.4944L83.3532 45.8383L83.3938 46.6942L83.4342 47.5502H60.0065H36.5787V46.7326C36.5787 46.025 36.62 45.8928 36.8851 45.7498C37.0535 45.6589 42.2162 43.2785 48.3574 40.4602C58.7293 35.7001 59.567 35.3399 60.1362 35.3946C60.5598 35.4353 62.6609 36.3326 66.9447 38.3021ZM58.7423 38.9065C58.5374 38.973 58.1563 39.1602 57.8952 39.3225C57.6342 39.4849 57.1771 39.8963 56.8794 40.2367C56.5817 40.5772 56.2352 41.1674 56.1095 41.5485C55.95 42.032 55.9005 42.5152 55.9455 43.1482C55.9845 43.693 56.1275 44.2859 56.3038 44.6337C56.4653 44.9519 56.785 45.4276 57.0145 45.6905C57.2438 45.9533 57.7796 46.3406 58.205 46.5509C58.843 46.8662 59.1579 46.9334 60 46.9334C60.8421 46.9334 61.157 46.8662 61.795 46.5509C62.2204 46.3406 62.7562 45.9533 62.9855 45.6905C63.215 45.4276 63.5347 44.9519 63.6962 44.6337C63.8725 44.2859 64.0155 43.693 64.0545 43.1482C64.0995 42.5152 64.05 42.032 63.8905 41.5485C63.7648 41.1674 63.4141 40.5723 63.1111 40.2259C62.8081 39.8794 62.281 39.4312 61.9395 39.2299C61.4297 38.929 61.1219 38.8566 60.2168 38.8247C59.6107 38.8032 58.9473 38.84 58.7423 38.9065ZM60.901 40.9592C61.2095 41.1001 61.5634 41.361 61.6874 41.5387C61.8116 41.7165 61.9753 42.0933 62.0511 42.3759C62.1447 42.7239 62.1444 43.0576 62.0505 43.4087C61.9741 43.6941 61.6926 44.1412 61.4249 44.4024C60.9652 44.8509 60.8858 44.8774 60 44.8774C59.1142 44.8774 59.0348 44.8509 58.5751 44.4024C58.3074 44.1412 58.0259 43.6941 57.9495 43.4087C57.8556 43.0576 57.8553 42.7239 57.9489 42.3759C58.0247 42.0933 58.1884 41.7165 58.3126 41.5387C58.4366 41.361 58.7905 41.1001 59.099 40.9592C59.4072 40.8182 59.8128 40.7029 60 40.7029C60.1872 40.7029 60.5927 40.8182 60.901 40.9592ZM44.4773 50.1201C44.4777 50.4029 44.5176 51.2354 44.5659 51.9705L44.6539 53.3069H42.1142H39.5745L39.576 51.9705C39.5768 51.2354 39.6155 50.4029 39.6619 50.1201L39.7463 49.6061H42.1115H44.4766L44.4773 50.1201ZM55.5805 50.8055C55.535 51.4652 55.317 56.2915 55.0958 61.5309C54.8747 66.7702 54.6548 71.6892 54.6073 72.4619L54.5206 73.8668H54.1485C53.9438 73.8668 53.5739 74.0055 53.3263 74.1752C53.0787 74.3449 52.748 74.6575 52.5912 74.8701C52.3493 75.1984 52.2994 75.4928 52.2605 76.8284L52.2146 78.4002L51.035 78.3609L49.8553 78.3214L49.7872 76.8137C49.7362 75.6824 49.6568 75.2033 49.4694 74.8948C49.332 74.6686 49.0668 74.3691 48.8799 74.2292C48.6932 74.0894 48.3001 73.9424 48.0064 73.9028C47.5019 73.8347 47.4723 73.8044 47.4723 73.3568C47.4723 73.0961 47.259 68.0002 46.9982 62.0327C46.7374 56.065 46.5076 50.8277 46.4876 50.394L46.4511 49.6056L51.057 49.6059L55.663 49.6061L55.5805 50.8055ZM62.4511 50.8205C62.4511 51.4886 62.49 52.3213 62.5377 52.6709L62.6243 53.3069H60H57.3757L57.4623 52.6709C57.51 52.3213 57.5489 51.4886 57.5489 50.8205V49.6061H60H62.4511V50.8205ZM73.0467 60.9483C72.7698 67.1866 72.5398 72.637 72.5354 73.0606L72.5277 73.8307L71.9936 73.9028C71.6999 73.9424 71.3068 74.0894 71.1201 74.2292C70.9332 74.3691 70.668 74.6686 70.5306 74.8948C70.3432 75.2033 70.2638 75.6824 70.2128 76.8137L70.1447 78.3214L68.965 78.3609L67.7854 78.4002L67.7395 76.8284C67.7006 75.4928 67.6507 75.1984 67.4087 74.8701C67.252 74.6575 66.9213 74.3449 66.6737 74.1752C66.4261 74.0055 66.0555 73.8668 65.85 73.8668H65.4766L65.3891 72.3933C65.3409 71.5829 65.1222 66.6948 64.9028 61.5309C64.6836 56.3669 64.4675 51.5714 64.4227 50.874L64.341 49.6061H68.9456H73.5502L73.0467 60.9483ZM80.3389 50.2421C80.3866 50.5918 80.4255 51.4245 80.4255 52.0925V53.3069H77.8858H75.3461L75.4341 51.9705C75.4824 51.2354 75.5223 50.4029 75.5227 50.1201L75.5234 49.6061H77.8879H80.2523L80.3389 50.2421ZM44.7489 55.7675C44.7489 56.0655 44.8998 59.8126 45.0842 64.0943C45.2686 68.3761 45.4516 72.3264 45.4909 72.8731L45.5624 73.8668H42.0918C38.8338 73.8668 38.6213 73.8516 38.6213 73.6187C38.6213 73.4823 38.7724 69.9204 38.9571 65.7031C39.1417 61.486 39.3314 57.4034 39.3787 56.6308L39.4644 55.2258H42.1067H44.7489V55.7675ZM62.6422 55.6713C62.6793 55.9162 62.8676 59.9101 63.0607 64.5463C63.2538 69.1826 63.4101 73.1762 63.4081 73.4213L63.4043 73.8668H60H56.5957L56.5921 73.3528C56.5902 73.0702 56.7465 69.0763 56.9397 64.4778C57.1328 59.8792 57.3211 55.9162 57.358 55.6713L57.4252 55.2258H60H62.5748L62.6422 55.6713ZM80.6215 56.6308C80.6687 57.4034 80.8586 61.5135 81.0431 65.7641C81.2277 70.0147 81.3787 73.5768 81.3787 73.6797C81.3787 73.8329 80.7507 73.8668 77.9106 73.8668H74.4426L74.5119 72.8045C74.5502 72.2203 74.732 68.2727 74.9162 64.032C75.1003 59.7915 75.2511 56.0754 75.2511 55.7738V55.2258H77.8933H80.5356L80.6215 56.6308ZM47.852 77.1221L47.8911 78.39H42.0988H36.3064V77.1792C36.3064 76.5132 36.3479 75.9266 36.3986 75.8756C36.4494 75.8245 39.0384 75.7989 42.1518 75.8185L47.8128 75.8542L47.852 77.1221ZM65.7191 77.0878V78.39H60H54.2808V77.0878V75.7857H60H65.7191V77.0878ZM83.6647 77.1221L83.7038 78.39H77.9116H72.1191V77.1792C72.1191 76.5132 72.1607 75.9266 72.2113 75.8756C72.2621 75.8245 74.8511 75.7989 77.9645 75.8185L83.6255 75.8542L83.6647 77.1221ZM86.2521 81.5082L86.2128 82.7075H60H33.7872L33.7479 81.5082L33.7085 80.3089H60H86.2915L86.2521 81.5082ZM89.8816 84.9997C90.0476 85.2382 90.0936 85.6988 90.0936 87.1242V88.944H60H29.9064V87.1242C29.9064 85.6988 29.9524 85.2382 30.1184 84.9997L30.3303 84.695H60H89.6697L89.8816 84.9997Z" fill="#292929"/>
</svg>
