<svg width="120" height="120" viewBox="0 0 120 120" fill="none" xmlns="http://www.w3.org/2000/svg">
<circle cx="60" cy="60" r="60" fill="#F4F4F4"/>
<path fill-rule="evenodd" clip-rule="evenodd" d="M57.5315 28.1302C57.093 28.1924 56.2149 28.4104 55.5801 28.6143C54.9453 28.8182 54.0293 29.2062 53.5446 29.4762C53.0599 29.7464 52.3234 30.2408 51.908 30.5747C51.4925 30.9088 50.7711 31.6538 50.3048 32.2303C49.8385 32.8068 49.1993 33.7739 48.8843 34.3794C48.5695 34.9849 48.1122 36.0856 47.8682 36.8253C47.6243 37.565 47.3144 38.81 47.1798 39.592C47.0453 40.3739 46.9351 41.0643 46.9351 41.1262C46.9351 41.1882 46.873 41.2388 46.7971 41.2388C46.7213 41.2388 46.5014 41.3505 46.3084 41.4869C46.1154 41.6234 45.828 42.0031 45.6696 42.3308C45.4276 42.8315 45.3822 43.1262 45.3856 44.177C45.3881 45.0202 45.4521 45.5673 45.5819 45.8573C45.7599 46.2554 45.7566 46.3112 45.5372 46.6075C45.4067 46.7835 45.2365 47.2651 45.159 47.6777C45.0799 48.0986 45.046 48.9938 45.082 49.7168C45.1334 50.7499 45.2064 51.1219 45.4495 51.5911C45.6265 51.9326 45.9773 52.3331 46.2915 52.5527C46.7712 52.8876 46.9309 52.9289 47.7481 52.9289H48.6659L48.7331 54.4917C48.7781 55.5363 48.8886 56.358 49.0666 56.9699C49.2132 57.4734 49.5238 58.2611 49.7569 58.7203C49.9902 59.1795 50.4347 59.8973 50.745 60.3151C51.0552 60.7331 51.6582 61.3801 52.085 61.753L52.8611 62.431L52.8253 63.3647L52.7893 64.2985L51.7191 64.5885C51.1306 64.748 49.8276 65.135 48.8235 65.4485C47.8195 65.762 46.2899 66.2716 45.4244 66.581C44.5588 66.8903 43.3691 67.3471 42.7805 67.596C42.192 67.8448 41.2513 68.3162 40.69 68.6434C40.1288 68.9706 39.4288 69.4774 39.1345 69.7696C38.8403 70.0619 38.4429 70.5275 38.2516 70.8045C38.0603 71.0814 37.6896 71.7299 37.4278 72.2457C37.166 72.7614 36.7644 73.7294 36.5351 74.3966C36.306 75.0639 35.9977 76.1891 35.8499 76.8972C35.7021 77.6052 35.1995 81.0538 34.7329 84.5609C34.1486 88.9536 33.9271 90.9614 34.0207 91.015C34.0955 91.0578 34.5108 91.1309 34.9435 91.1774C35.4903 91.2363 35.7304 91.2196 35.7304 91.1226C35.7304 91.0457 36.1019 88.1914 36.556 84.7798C37.0101 81.3682 37.4928 78.0258 37.6288 77.3523C37.7647 76.6787 38.0415 75.6246 38.2438 75.0099C38.4461 74.3951 38.7923 73.5358 39.0132 73.1002C39.2341 72.6646 39.5715 72.0814 39.7628 71.8042C39.9543 71.527 40.2959 71.1207 40.522 70.9011C40.748 70.6817 41.3715 70.2755 41.9075 69.9985C42.4434 69.7216 42.9158 69.495 42.9572 69.495C42.9985 69.495 43.0323 71.1537 43.0323 73.1809V76.8665L42.5168 77.1279C42.2331 77.2715 41.7644 77.6242 41.4751 77.9118C41.1858 78.1993 40.8237 78.6994 40.6705 79.0233C40.5174 79.347 40.336 79.8533 40.2675 80.1485C40.1959 80.457 40.1416 82.9736 40.1398 86.0707L40.1367 91.4563L40.4281 91.7282L40.7195 92H60.0587H79.3979L79.6588 91.6706C79.9131 91.3496 79.9198 91.2112 79.9198 86.2549C79.9198 83.1998 79.8664 80.8817 79.7861 80.4502C79.7126 80.055 79.5444 79.4816 79.4124 79.1758C79.2804 78.87 78.917 78.3487 78.605 78.0174C78.293 77.6861 77.8103 77.3069 77.5324 77.1746L77.0271 76.9342L77.0256 73.2059L77.0242 69.4775L78.048 70.0177C78.7609 70.3937 79.2753 70.7806 79.7418 71.2916C80.1118 71.6969 80.6362 72.4806 80.9131 73.042C81.1888 73.6011 81.5599 74.5078 81.7377 75.0568C81.9155 75.6059 82.1763 76.5905 82.3172 77.2448C82.4581 77.8991 82.9568 81.3039 83.4252 84.8109L84.277 91.1873L85.0884 91.1459C85.5347 91.1232 85.9426 91.0638 85.9949 91.014C86.0472 90.9641 85.692 87.9446 85.2054 84.3039C84.7188 80.6631 84.1839 77.1176 84.0165 76.4249C83.8491 75.7322 83.5468 74.6913 83.3445 74.1119C83.1423 73.5324 82.7922 72.6926 82.5665 72.2457C82.3409 71.7987 81.9092 71.087 81.6073 70.6642C81.3054 70.2413 80.8446 69.7282 80.5835 69.5239C80.3223 69.3195 79.7404 68.9314 79.2903 68.6616C78.8402 68.3917 77.8771 67.9106 77.1501 67.5924C76.423 67.2743 74.9784 66.7196 73.9397 66.3596C72.9011 65.9998 70.9466 65.3859 69.5963 64.9954L67.1414 64.2856L67.105 63.4165L67.0685 62.5473L68.305 61.3014C69.3453 60.2531 69.6361 59.867 70.1378 58.8677C70.4658 58.2144 70.8417 57.253 70.9731 56.7311C71.1047 56.2094 71.252 55.1404 71.3006 54.3556L71.389 52.9289L72.0144 52.9729C72.3979 52.9999 72.8543 52.9356 73.194 52.8069C73.5173 52.6842 73.9331 52.3822 74.192 52.0817C74.4361 51.7985 74.6969 51.3418 74.7714 51.0669C74.8486 50.782 74.8885 49.8372 74.8639 48.8723C74.8257 47.3632 74.7893 47.1269 74.5308 46.7143C74.2512 46.2676 74.2478 46.2303 74.4364 45.6784C74.5473 45.354 74.6322 44.6841 74.6322 44.1323C74.6322 43.5721 74.5476 42.9121 74.4327 42.5776C74.3202 42.2494 74.0515 41.838 73.8155 41.6322C73.5857 41.4317 73.3368 41.2472 73.2624 41.2221C73.1881 41.1969 73.0158 40.528 72.8796 39.7357C72.7433 38.9436 72.4363 37.7022 72.1972 36.9773C71.958 36.2522 71.5228 35.1767 71.2298 34.5872C70.9369 33.9976 70.4208 33.1487 70.083 32.7007C69.7453 32.2528 69.0239 31.4728 68.48 30.9676C67.9361 30.4623 67.1769 29.8622 66.7926 29.6341C66.4084 29.406 65.6497 29.0536 65.1069 28.8511C64.564 28.6485 63.5727 28.371 62.9041 28.2343C62.0105 28.0518 61.2431 27.99 60.0085 28.0013C59.0845 28.0098 57.97 28.0678 57.5315 28.1302ZM59.3988 33.1844V36.6327L58.9896 36.5468C58.7646 36.4995 58.2505 36.2881 57.8471 36.0768C57.4437 35.8656 56.9481 35.4932 56.7455 35.2491L56.3773 34.8054V32.5294C56.3773 30.4686 56.3982 30.2474 56.5976 30.1913C56.7188 30.1571 57.1295 30.0684 57.5103 29.9942C57.8912 29.92 58.4011 29.8406 58.6434 29.8177C58.8858 29.7949 59.1549 29.7673 59.2414 29.7563C59.364 29.7407 59.3988 30.4986 59.3988 33.1844ZM63.5153 30.2338L64.2458 30.4581L64.2801 32.6573L64.3145 34.8567L63.8123 35.3554C63.5361 35.6297 63.0391 35.9885 62.7078 36.1527C62.3766 36.317 61.9215 36.4863 61.6964 36.529L61.2872 36.6066V33.2217V29.8368L62.036 29.9231C62.448 29.9706 63.1136 30.1104 63.5153 30.2338ZM54.6147 33.1833V35.38L54.9907 35.9226C55.1975 36.2212 55.6082 36.6724 55.9034 36.9254C56.1986 37.1784 56.7518 37.5425 57.1327 37.7345C57.5135 37.9265 58.2734 38.1823 58.8214 38.303C59.5521 38.464 60.0893 38.502 60.8358 38.4458C61.3956 38.4036 62.1143 38.2887 62.4327 38.1903C62.7513 38.0919 63.2895 37.8705 63.6287 37.6983C63.9682 37.5261 64.494 37.1726 64.7974 36.9126C65.1008 36.6527 65.5116 36.2172 65.7102 35.945L66.0713 35.45V33.3981V31.3461L66.6531 31.7602C66.9732 31.988 67.5211 32.4838 67.8705 32.862C68.2202 33.2402 68.7532 33.928 69.0552 34.3904C69.3573 34.8528 69.8224 35.7811 70.089 36.4534C70.3556 37.1255 70.6972 38.2035 70.8481 38.8489C70.9991 39.4943 71.1674 40.5497 71.222 41.1942C71.2944 42.045 71.3838 42.4343 71.5486 42.6151C71.6735 42.7522 71.9298 42.8642 72.1184 42.8642C72.3069 42.8642 72.5332 42.9504 72.6214 43.0558C72.7094 43.1612 72.8082 43.5238 72.8409 43.8615C72.8735 44.1992 72.8624 44.6756 72.8164 44.9201C72.7334 45.3591 72.7243 45.3647 72.1035 45.3647C71.7247 45.3647 71.2799 45.4634 70.9847 45.613C70.7152 45.7496 70.4592 45.9184 70.4158 45.9881C70.3634 46.0721 66.8717 46.1149 60.0591 46.1149H49.7814L49.299 45.7829C48.9564 45.5471 48.5899 45.4295 48.0333 45.3766L47.2498 45.3022L47.2131 44.3348C47.1929 43.8028 47.2374 43.2541 47.3119 43.1157C47.4004 42.9517 47.5757 42.8642 47.8159 42.8642C48.0202 42.8642 48.2871 42.7545 48.4151 42.618C48.5889 42.4328 48.6833 42.0074 48.7963 40.8989C48.8789 40.0888 49.0914 38.8914 49.2686 38.2382C49.4456 37.5849 49.8031 36.5715 50.0631 35.9864C50.3231 35.4012 50.7849 34.5572 51.0894 34.111C51.3938 33.6647 51.9293 33.0155 52.2791 32.6682C52.6289 32.321 53.2551 31.8034 53.6705 31.5181C54.086 31.2327 54.4684 30.9964 54.5203 30.9929C54.5722 30.9894 54.6147 31.975 54.6147 33.1833ZM48.2696 47.2108C48.3458 47.2613 48.4733 47.4256 48.5529 47.5757C48.6351 47.7309 48.6976 48.412 48.6976 49.1529C48.6976 50.2831 48.6628 50.5011 48.4367 50.7865C48.261 51.0085 48.0554 51.116 47.8072 51.116C47.6045 51.116 47.3254 51.0035 47.1869 50.8659C46.9636 50.6441 46.9351 50.4492 46.9351 49.1434C46.9351 48.0129 46.9807 47.6063 47.1311 47.3931C47.2647 47.2035 47.4549 47.1157 47.7291 47.117C47.9502 47.1181 48.1934 47.1602 48.2696 47.2108ZM72.6934 47.2108C72.7695 47.2613 72.8971 47.4256 72.9766 47.5757C73.0588 47.7309 73.1214 48.412 73.1214 49.1529C73.1214 50.2831 73.0865 50.5011 72.8604 50.7865C72.6708 51.0261 72.4836 51.116 72.1752 51.116C71.8794 51.116 71.6915 51.0319 71.5549 50.8381C71.4041 50.6243 71.3589 50.216 71.3589 49.0663C71.3589 47.8517 71.3978 47.5297 71.5672 47.3438C71.6847 47.2149 71.9455 47.116 72.1652 47.117C72.3795 47.1181 72.6172 47.1602 72.6934 47.2108ZM69.4468 51.9599C69.4076 56.0435 69.4066 56.0571 69.0702 56.9717C68.8846 57.476 68.5447 58.1992 68.3148 58.5789C68.0848 58.9585 67.5442 59.6237 67.1135 60.0573C66.6827 60.4909 66.0023 61.0436 65.6015 61.2854C65.2007 61.527 64.4201 61.8815 63.8668 62.0729C62.9259 62.3984 62.7024 62.4237 60.4059 62.4667C58.5317 62.5018 57.7276 62.4667 57.0068 62.3188C56.4859 62.2121 55.6008 61.8944 55.0328 61.6104C54.4666 61.3274 53.6616 60.7888 53.244 60.4134C52.8265 60.0382 52.2011 59.3099 51.8542 58.7949C51.489 58.2526 51.0792 57.4265 50.8804 56.8316C50.5409 55.816 50.5365 55.7603 50.488 51.8349L50.4389 47.8653H59.9624H69.486L69.4468 51.9599ZM55.6507 63.7987C56.1542 63.9664 57.0462 64.1634 57.633 64.2363C58.2196 64.3093 59.2677 64.3684 59.962 64.3679C60.6562 64.3673 61.7058 64.3112 62.2944 64.243C62.8829 64.175 63.7044 64.0132 64.1199 63.8837C64.5353 63.754 64.9776 63.6061 65.1027 63.5547C65.3076 63.4708 65.3263 63.5264 65.2916 64.1131C65.2537 64.7513 65.2002 64.832 62.6721 68.0626C61.2526 69.8765 60.0527 71.3628 60.0057 71.3656C59.9586 71.3682 58.7265 69.8699 57.2675 68.036C54.6441 64.7382 54.6147 64.6947 54.6147 64.0976C54.6147 63.7654 54.6419 63.4937 54.675 63.4937C54.7082 63.4937 55.1473 63.631 55.6507 63.7987ZM56.7007 70.2198C58.4366 72.3999 59.9215 74.1836 60.0006 74.1836C60.0797 74.1836 61.5907 72.3462 63.3586 70.1004L66.5728 66.0174L67.6125 66.3026C68.1843 66.4595 69.0628 66.7098 69.5649 66.859L70.4776 67.1301V72.0634V76.9967H60.0269H49.576L49.609 72.031L49.6419 67.0653L51.4673 66.544C52.6129 66.2169 53.3397 66.0663 53.4187 66.1396C53.488 66.2037 54.9649 68.0398 56.7007 70.2198ZM47.7168 72.9828C47.7514 77.9302 47.7668 78.2356 47.9933 78.484L48.2331 78.7471H59.9848C71.5687 78.7471 71.7402 78.7435 71.9883 78.497C72.2322 78.2548 72.2401 78.0803 72.2401 72.9958C72.2401 70.1077 72.2826 67.7447 72.3346 67.7445C72.3866 67.7445 73.0377 67.9556 73.7817 68.2134L75.1344 68.6824L75.1351 73.144C75.1355 75.753 75.187 77.7394 75.2591 77.9278C75.327 78.1051 75.5394 78.3112 75.7312 78.3861C75.923 78.4609 76.3153 78.6257 76.6028 78.7521C76.8905 78.8786 77.265 79.1684 77.4352 79.396C77.6054 79.6236 77.8093 80.0011 77.8881 80.2348C77.9853 80.5231 78.0313 82.2025 78.0313 85.4547V90.2496H59.9573H41.8833L41.9242 85.4048C41.9612 81.0148 41.987 80.5098 42.1988 80.0257C42.3273 79.7319 42.652 79.305 42.9203 79.0769C43.1886 78.8489 43.621 78.597 43.8811 78.5175C44.1413 78.4379 44.4392 78.3185 44.5431 78.2521C44.7036 78.1494 44.7414 77.4225 44.7949 73.4117L44.8578 68.6921L46.1797 68.2253C46.9068 67.9686 47.5418 67.7554 47.5909 67.7515C47.6399 67.7478 47.6965 70.1018 47.7168 72.9828ZM43.9136 81.1851V81.9978H46.3056H48.6976V81.1851V80.3724H46.3056H43.9136V81.1851ZM71.3589 81.1851V81.9978H73.7509H76.1429V81.1851V80.3724H73.7509H71.3589V81.1851Z" fill="#292929"/>
</svg>
