<svg width="50" height="65" viewBox="0 0 50 65" fill="none" xmlns="http://www.w3.org/2000/svg">
<path fill-rule="evenodd" clip-rule="evenodd" d="M33.1971 15.282C32.5719 15.1746 31.6953 15.0627 31.2493 15.0332C30.8033 15.0037 30.0415 14.9916 29.5564 15.0061C29.0713 15.0207 28.2439 15.0872 27.7178 15.1539C27.1917 15.2206 26.3409 15.3829 25.8272 15.5147C25.3135 15.6464 24.5015 15.896 24.0227 16.0693C23.544 16.2426 22.6279 16.6645 21.9869 17.0067C21.3459 17.349 20.4765 17.8861 20.0551 18.2003C19.6335 18.5145 19.0228 19.007 18.6979 19.2948C18.3729 19.5827 17.779 20.1862 17.378 20.636C16.9771 21.0858 16.4331 21.7652 16.1691 22.1458C15.9051 22.5264 15.4847 23.2136 15.2348 23.673C14.9849 24.1324 14.6179 24.8941 14.419 25.3656C14.2203 25.8371 13.9033 26.7299 13.7146 27.3494C13.5119 28.015 13.3027 28.9606 13.2032 29.6605C13.1105 30.3121 13.0218 31.283 13.0059 31.818C12.9901 32.3529 13.0071 33.2422 13.0438 33.7941C13.0806 34.346 13.2354 35.4778 13.388 36.3093C13.5405 37.1408 13.8681 38.6465 14.1158 39.6553C14.3635 40.6641 14.8259 42.3672 15.1434 43.4399C15.4608 44.5126 16.0318 46.3187 16.412 47.4534C16.7922 48.5881 17.4031 50.3274 17.7694 51.3184C18.1358 52.3095 18.8253 54.088 19.3017 55.2705C19.7782 56.4531 20.5077 58.2087 20.9229 59.1719C21.3382 60.135 22.0371 61.7045 22.476 62.6596C22.9149 63.6148 23.3516 64.4932 23.4463 64.6118C23.541 64.7305 23.771 64.8783 23.9572 64.9404C24.1434 65.0025 24.4055 65.0188 24.5395 64.9764C24.6736 64.9341 25.4411 64.4573 26.2452 63.9167C27.0493 63.3761 28.3516 62.474 29.1392 61.9121C29.9268 61.3501 31.3386 60.3086 32.2764 59.5977C33.2143 58.8868 34.7102 57.7105 35.6007 56.9838C36.4911 56.2571 37.9255 55.0371 38.7882 54.2727C39.6509 53.5082 40.8424 52.4166 41.4363 51.8469C42.03 51.2771 43.0581 50.2404 43.7208 49.5431C44.3836 48.8457 45.3433 47.7693 45.8534 47.1509C46.3635 46.5326 47.0102 45.6617 47.2906 45.2157C47.571 44.7695 47.987 44.0247 48.2151 43.5605C48.4432 43.0962 48.8062 42.2169 49.0217 41.6063C49.2532 40.9504 49.5025 40.0181 49.6308 39.3278C49.7502 38.6851 49.8841 37.7313 49.9282 37.2082C49.9722 36.6851 50.0043 35.8117 49.9995 35.2673C49.9947 34.7229 49.9479 33.8799 49.8955 33.3938C49.8431 32.9077 49.6878 31.995 49.5503 31.3657C49.4128 30.7363 49.1809 29.8574 49.0348 29.4124C48.8888 28.9676 48.5924 28.1725 48.3762 27.6456C48.1601 27.1188 47.6642 26.1264 47.2742 25.4402C46.8843 24.7542 46.2966 23.8307 45.9683 23.3883C45.6399 22.9458 45.0628 22.2329 44.6859 21.8042C44.3091 21.3755 43.6597 20.7128 43.2429 20.3317C42.8262 19.9505 42.1534 19.3835 41.748 19.0719C41.3425 18.7603 40.6289 18.266 40.1621 17.9735C39.6954 17.681 38.8462 17.2132 38.2751 16.934C37.6725 16.6395 36.6276 16.2272 35.7854 15.9518C34.9129 15.6664 33.8805 15.3992 33.1971 15.282Z" fill="url(#paint0_linear_179_1733)"/>
<path fill-rule="evenodd" clip-rule="evenodd" d="M20.4395 0.237845C19.6352 0.362027 18.5194 0.583598 17.9599 0.730127C17.4004 0.876529 16.4562 1.17365 15.8617 1.39014C15.2673 1.60663 14.2659 2.02718 13.6364 2.32455C13.007 2.62193 12.0056 3.1697 11.4111 3.54186C10.8167 3.9139 9.88942 4.55296 9.35064 4.96182C8.81186 5.37068 7.80806 6.26395 7.11987 6.94669C6.43168 7.62956 5.52032 8.64511 5.09472 9.20354C4.66898 9.76198 4.06345 10.6169 3.74911 11.1033C3.43464 11.5899 2.8834 12.5742 2.52392 13.2907C2.16456 14.0073 1.69776 15.0643 1.48655 15.6398C1.27533 16.2152 0.963409 17.2313 0.793396 17.8978C0.623383 18.5643 0.399835 19.6499 0.296454 20.3103C0.1932 20.9707 0.0709993 22.1968 0.024713 23.0348C-0.0248795 23.935 0.00182416 25.1819 0.0899462 26.0822C0.171964 26.9202 0.355075 28.1487 0.496732 28.8122C0.638388 29.4756 0.927423 30.5606 1.13914 31.2233C1.35087 31.8858 1.88316 33.2123 2.32212 34.1709C2.76107 35.1294 3.61928 36.8442 4.22914 37.9815C4.839 39.1188 5.92316 41.0208 6.63844 42.208C7.35372 43.3952 8.60294 45.3792 9.41435 46.6168C10.2258 47.8545 11.5041 49.74 12.2551 50.807C13.0061 51.874 14.3934 53.7754 15.338 55.0325C16.2826 56.2895 17.7124 58.1465 18.5153 59.1592C19.3183 60.1718 20.6542 61.8128 21.4839 62.8059C22.3137 63.7991 23.1175 64.6989 23.2702 64.8057C23.4229 64.9126 23.7514 65 24 65C24.2486 65 24.5771 64.9126 24.7298 64.8057C24.8825 64.6989 25.6863 63.7991 26.5161 62.8059C27.3458 61.8128 28.6817 60.1718 29.4847 59.1592C30.2876 58.1465 31.7166 56.2895 32.6601 55.0325C33.6036 53.7754 35.0959 51.7184 35.9762 50.4614C36.8564 49.2043 38.2595 47.1188 39.0942 45.8268C39.9287 44.5348 41.0707 42.7064 41.6322 41.7636C42.1934 40.8208 43.1502 39.1267 43.7581 37.999C44.3662 36.8712 45.2265 35.1565 45.6699 34.1883C46.1133 33.2201 46.6491 31.8858 46.8609 31.2233C47.0726 30.5606 47.3616 29.4756 47.5033 28.8122C47.6449 28.1487 47.828 26.9202 47.9101 26.0822C47.9982 25.1819 48.0249 23.935 47.9753 23.0348C47.929 22.1968 47.8068 20.9707 47.7035 20.3103C47.6002 19.6499 47.3766 18.5643 47.2066 17.8978C47.0366 17.2313 46.7247 16.2152 46.5135 15.6398C46.3022 15.0643 45.8354 14.0073 45.4761 13.2907C45.1166 12.5742 44.5654 11.5899 44.2509 11.1033C43.9366 10.6169 43.331 9.76198 42.9053 9.20354C42.4797 8.64511 41.5683 7.62956 40.8801 6.94669C40.1919 6.26395 39.1881 5.37068 38.6494 4.96182C38.1106 4.55296 37.1833 3.9139 36.5889 3.54186C35.9944 3.1697 34.993 2.62193 34.3636 2.32455C33.7341 2.02718 32.7327 1.60651 32.1383 1.38989C31.5438 1.17327 30.5138 0.858499 29.8494 0.690511C29.185 0.522523 27.9956 0.295873 27.2065 0.186928C26.3737 0.0720161 24.9596 -0.00632736 23.8367 0.000402313C22.6736 0.00725896 21.3186 0.101982 20.4395 0.237845Z" fill="#83B32B"/>
<rect x="15" y="15" width="8" height="8" fill="white"/>
<rect x="25" y="15" width="8" height="8" fill="white"/>
<rect x="15" y="25" width="8" height="8" fill="white"/>
<rect x="25" y="25" width="8" height="8" fill="white"/>
<defs>
<linearGradient id="paint0_linear_179_1733" x1="48.134" y1="29.0718" x2="19.6187" y2="61.0743" gradientUnits="userSpaceOnUse">
<stop stop-color="#B4C29B" stop-opacity="0"/>
<stop offset="1" stop-color="#646666"/>
</linearGradient>
</defs>
</svg>
